<?xml version="1.0" encoding="utf-8"?>
<!-- Generator: Adobe Illustrator 26.0.1, SVG Export Plug-In . SVG Version: 6.00 Build 0)  -->
<svg version="1.1" id="Capa_1" xmlns="http://www.w3.org/2000/svg" xmlns:xlink="http://www.w3.org/1999/xlink" x="0px" y="0px"
	 viewBox="0 0 295 60.4" style="enable-background:new 0 0 295 60.4;" xml:space="preserve">
<style type="text/css">
	.st0{fill:#3567D7;}
	.st1{fill:#FFFFFF;}
	.st2{font-family:'Montserrat-ExtraBold';}
	.st3{font-size:20px;}
</style>
<path class="st0" d="M264.8,60.4H30.2C13.5,60.4,0,46.9,0,30.2v0C0,13.5,13.5,0,30.2,0h234.6C281.5,0,295,13.5,295,30.2v0
	C295,46.9,281.5,60.4,264.8,60.4z"/>
<g>
	<text transform="matrix(0.9157 0 0 1 102.5314 38.6484)" class="st1 st2 st3">ADD TO CART</text>
	<g>
		<g>
			<path class="st1" d="M89.3,28.7c-4.8,10.2-6.4,10.2-7.3,10.2h-9.2c-3.2,0-5.7-1.9-6.3-4.8c0-0.1-1.8-9.1-2.3-11.6
				c-0.2-1.2-0.8-2-2.9-2c-1,0-1.7-0.8-1.7-1.7s0.8-1.7,1.7-1.7c3.5,0,5.7,1.7,6.3,4.9c0.5,2.5,2.3,11.4,2.3,11.5
				c0.4,1.8,2,2.1,2.9,2.1h8.8c0.9-1,3.1-4.9,4.7-8.2c0.4-0.9,1.4-1.2,2.3-0.8C89.3,26.8,89.7,27.8,89.3,28.7z M71.6,40
				c-1.6,0-2.9,1.3-2.9,2.9s1.3,2.9,2.9,2.9c1.6,0,2.9-1.3,2.9-2.9S73.1,40,71.6,40z M81.9,40c-1.6,0-2.9,1.3-2.9,2.9
				s1.3,2.9,2.9,2.9c1.6,0,2.9-1.3,2.9-2.9S83.5,40,81.9,40z M76.4,30.6c0.1,0.1,0.3,0.1,0.4,0.1c0.1,0,0.3,0,0.4-0.1
				c0.1-0.1,3.3-3.2,5-5.7c0.1-0.2,0.1-0.5,0-0.7c-0.1-0.2-0.3-0.3-0.6-0.3H79c0,0-0.3-4.9-0.4-5.2c-0.2-0.3-1.2-0.6-1.9-0.6
				c-0.6,0-1.6,0.2-1.9,0.6c-0.2,0.2-0.4,5.2-0.4,5.2h-2.6c-0.2,0-0.5,0.1-0.6,0.3c-0.1,0.2-0.1,0.5,0,0.7
				C73.1,27.5,76.2,30.5,76.4,30.6z"/>
		</g>
	</g>
</g>
</svg>
