<?xml version="1.0" encoding="utf-8"?>
<!-- Generator: Adobe Illustrator 26.0.1, SVG Export Plug-In . SVG Version: 6.00 Build 0)  -->
<svg version="1.1" id="Layer_1" xmlns="http://www.w3.org/2000/svg" xmlns:xlink="http://www.w3.org/1999/xlink" x="0px" y="0px"
	 viewBox="0 0 423.5 423.5" style="enable-background:new 0 0 423.5 423.5;" xml:space="preserve">
<style type="text/css">
	.st0{fill:#EEEFFB;}
</style>
<g>
	<g>
		<g>
			<path class="st0" d="M73.8,318.1c13.6,0,24.7-11.1,24.7-24.7c0-5.5,4.5-10,10-10s10,4.5,10,10c0,13.6,11.1,24.7,24.7,24.7
				c13.6,0,24.7-11.1,24.7-24.7c0-5.5,4.5-10,10-10s10,4.5,10,10c0,13.6,11.1,24.7,24.7,24.7s24.7-11.1,24.7-24.7
				c0-5.5,4.5-10,10-10s10,4.5,10,10c0,13.6,11.1,24.7,24.7,24.7s24.7-11.1,24.7-24.7c0-5.5,4.5-10,10-10s10,4.5,10,10
				c0,13.6,11.1,24.7,24.7,24.7c8.4,0,15.8-4.2,20.3-10.6v-56.9c0-25-19.8-45.4-44.6-46.5h-229c-24.8,1-44.6,21.5-44.6,46.5v56.9
				C58,314,65.4,318.1,73.8,318.1z"/>
			<path class="st0" d="M249.8,139.3c0-4.8-3.4-8.8-7.9-9.8c-7.1,5.3-15.6,8.4-24.7,9c-1.1,0.1-2.2,0.1-3.3,0.1s-2.2,0-3.3-0.1
				c-9.1-0.6-17.6-3.8-24.7-9c-4.5,1-7.9,5-7.9,9.8v54.3h71.8L249.8,139.3L249.8,139.3z"/>
			<path class="st0" d="M211.8,120.7c0.7,0,1.4,0.1,2.1,0.1c0.7,0,1.4,0,2.1-0.1c9.3-0.6,17.6-5.6,22.7-13.6
				c5.2-8.2,6.2-18.4,2.6-27.4l-18.1-46.2c-1.5-3.8-5.2-6.4-9.3-6.4s-7.8,2.5-9.3,6.4l-18.1,46.2c-3.5,9-2.5,19.2,2.6,27.4
				C194.2,115.1,202.4,120,211.8,120.7z"/>
			<path class="st0" d="M408.5,366.3h-36.7v-33c-6.1,3.1-13,4.9-20.3,4.9c-14,0-26.5-6.5-34.7-16.6c-8.2,10.1-20.7,16.6-34.7,16.6
				s-26.5-6.5-34.7-16.6c-8.2,10.1-20.7,16.6-34.7,16.6s-26.5-6.5-34.7-16.6c-8.2,10.1-20.7,16.6-34.7,16.6s-26.5-6.5-34.7-16.6
				c-8.2,10.1-20.7,16.6-34.7,16.6c-7.3,0-14.2-1.8-20.3-4.9v33H15c-8.3,0-15,6.7-15,15s6.7,15,15,15h393.5c8.3,0,15-6.7,15-15
				S416.8,366.3,408.5,366.3z"/>
		</g>
	</g>
</g>
</svg>
