<?xml version="1.0" encoding="iso-8859-1"?>
<!-- Generator: Adobe Illustrator 19.0.0, SVG Export Plug-In . SVG Version: 6.00 Build 0)  -->
<svg version="1.1" id="Layer_1" xmlns="http://www.w3.org/2000/svg" xmlns:xlink="http://www.w3.org/1999/xlink" x="0px" y="0px"
	 viewBox="0 0 512 512" style="enable-background:new 0 0 512 512;" xml:space="preserve">
<g>
	<g>
		<g>
			<path d="M500.093,181.35H11.907C5.331,181.35,0,186.681,0,193.257v260.488c0,9.864,7.997,17.86,17.86,17.86H494.14
				c9.864,0,17.86-7.997,17.86-17.86V193.257C512,186.681,506.669,181.35,500.093,181.35z M107.371,399.907
				C92.807,399.907,81,388.1,81,373.535c0-14.565,11.807-26.372,26.372-26.372c14.565,0,26.372,11.807,26.372,26.372
				C133.743,388.098,121.936,399.907,107.371,399.907z M107.371,305.793C92.807,305.793,81,293.986,81,279.421
				s11.807-26.372,26.372-26.372c14.565,0,26.372,11.807,26.372,26.372S121.936,305.793,107.371,305.793z M206.457,399.907
				c-14.565,0-26.372-11.807-26.372-26.372c0-14.565,11.807-26.372,26.372-26.372c14.565,0,26.372,11.807,26.372,26.372
				C232.829,388.098,221.022,399.907,206.457,399.907z M206.457,305.793c-14.565,0-26.372-11.807-26.372-26.372
				s11.807-26.372,26.372-26.372c14.565,0,26.372,11.807,26.372,26.372S221.022,305.793,206.457,305.793z M305.543,399.907
				c-14.565,0-26.372-11.807-26.372-26.372c0-14.565,11.807-26.372,26.372-26.372c14.565,0,26.372,11.807,26.372,26.372
				C331.915,388.098,320.108,399.907,305.543,399.907z M305.543,305.793c-14.565,0-26.372-11.807-26.372-26.372
				s11.807-26.372,26.372-26.372c14.565,0,26.372,11.807,26.372,26.372C331.915,293.986,320.108,305.793,305.543,305.793z
				 M404.629,399.907c-14.565,0-26.372-11.807-26.372-26.372c0-14.565,11.807-26.372,26.372-26.372
				c14.565,0,26.372,11.807,26.372,26.372C431,388.098,419.193,399.907,404.629,399.907z M404.629,305.793
				c-14.565,0-26.372-11.807-26.372-26.372s11.807-26.372,26.372-26.372c14.565,0,26.372,11.807,26.372,26.372
				S419.193,305.793,404.629,305.793z"/>
			<path d="M494.14,69.02h-71.65V58.255c0-9.864-7.997-17.86-17.86-17.86c-9.864,0-17.86,7.997-17.86,17.86V69.02h-63.365V58.255
				c0-9.864-7.997-17.86-17.86-17.86c-9.864,0-17.86,7.997-17.86,17.86V69.02h-63.365V58.255c0-9.864-7.997-17.86-17.86-17.86
				c-9.864,0-17.86,7.997-17.86,17.86V69.02H125.23V58.255c0-9.864-7.997-17.86-17.86-17.86c-9.864,0-17.86,7.997-17.86,17.86V69.02
				H17.86C7.997,69.02,0,77.017,0,86.88v64.703c0,6.576,5.331,11.907,11.907,11.907h488.186c6.576,0,11.907-5.331,11.907-11.907
				V86.88C512,77.017,504.003,69.02,494.14,69.02z"/>
		</g>
	</g>
</g>
<g>
</g>
<g>
</g>
<g>
</g>
<g>
</g>
<g>
</g>
<g>
</g>
<g>
</g>
<g>
</g>
<g>
</g>
<g>
</g>
<g>
</g>
<g>
</g>
<g>
</g>
<g>
</g>
<g>
</g>
</svg>
