<?xml version="1.0" encoding="utf-8"?>
<!-- Generator: Adobe Illustrator 26.0.1, SVG Export Plug-In . SVG Version: 6.00 Build 0)  -->
<svg version="1.1" id="Layer_1" xmlns="http://www.w3.org/2000/svg" xmlns:xlink="http://www.w3.org/1999/xlink" x="0px" y="0px"
	 viewBox="0 0 512 512" style="enable-background:new 0 0 512 512;" xml:space="preserve">
<style type="text/css">
	.st0{fill:#B470EF;}
</style>
<g>
	<g>
		<g>
			<g>
				<g>
					<path class="st0" d="M500.1,181.4H11.9c-6.6,0-11.9,5.3-11.9,11.9v260.5c0,9.9,8,17.9,17.9,17.9h476.3c9.9,0,17.9-8,17.9-17.9
						V193.3C512,186.7,506.7,181.4,500.1,181.4z M107.4,399.9c-14.6,0-26.4-11.8-26.4-26.4s11.8-26.4,26.4-26.4s26.4,11.8,26.4,26.4
						C133.7,388.1,121.9,399.9,107.4,399.9z M107.4,305.8C92.8,305.8,81,294,81,279.4S92.8,253,107.4,253s26.4,11.8,26.4,26.4
						S121.9,305.8,107.4,305.8z M206.5,399.9c-14.6,0-26.4-11.8-26.4-26.4s11.8-26.4,26.4-26.4c14.6,0,26.4,11.8,26.4,26.4
						C232.8,388.1,221,399.9,206.5,399.9z M206.5,305.8c-14.6,0-26.4-11.8-26.4-26.4s11.8-26.4,26.4-26.4
						c14.6,0,26.4,11.8,26.4,26.4S221,305.8,206.5,305.8z M305.5,399.9c-14.6,0-26.4-11.8-26.4-26.4s11.8-26.4,26.4-26.4
						s26.4,11.8,26.4,26.4S320.1,399.9,305.5,399.9z M305.5,305.8c-14.6,0-26.4-11.8-26.4-26.4S291,253,305.5,253
						s26.4,11.8,26.4,26.4S320.1,305.8,305.5,305.8z M404.6,399.9c-14.6,0-26.4-11.8-26.4-26.4s11.8-26.4,26.4-26.4
						S431,359,431,373.5C431,388.1,419.2,399.9,404.6,399.9z M404.6,305.8c-14.6,0-26.4-11.8-26.4-26.4S390,253,404.6,253
						s26.4,11.8,26.4,26.4S419.2,305.8,404.6,305.8z"/>
					<path class="st0" d="M494.1,69h-71.6V58.3c0-9.9-8-17.9-17.9-17.9s-17.9,8-17.9,17.9V69h-63.4V58.3c0-9.9-8-17.9-17.9-17.9
						s-17.9,8-17.9,17.9V69h-63.4V58.3c0-9.9-8-17.9-17.9-17.9s-17.9,8-17.9,17.9V69h-63.4V58.3c0-9.9-8-17.9-17.9-17.9
						s-17.9,8-17.9,17.9V69H17.9C8,69,0,77,0,86.9v64.7c0,6.6,5.3,11.9,11.9,11.9h488.2c6.6,0,11.9-5.3,11.9-11.9V86.9
						C512,77,504,69,494.1,69z"/>
				</g>
			</g>
		</g>
	</g>
</g>
</svg>
