<?xml version="1.0" encoding="utf-8"?>
<!-- Generator: Adobe Illustrator 26.0.1, SVG Export Plug-In . SVG Version: 6.00 Build 0)  -->
<svg version="1.1" id="Capa_1" xmlns="http://www.w3.org/2000/svg" xmlns:xlink="http://www.w3.org/1999/xlink" x="0px" y="0px"
	 viewBox="0 0 295 60.4" style="enable-background:new 0 0 295 60.4;" xml:space="preserve">
<style type="text/css">
	.st0{fill:#3567D7;}
	.st1{fill:#FFFFFF;}
	.st2{font-family:'Montserrat-ExtraBold';}
	.st3{font-size:18px;}
	.st4{fill:none;stroke:#FFFFFF;stroke-width:3;stroke-linecap:round;stroke-linejoin:round;}
</style>
<path class="st0" d="M264.8,60.4H30.2C13.5,60.4,0,46.9,0,30.2l0,0C0,13.5,13.5,0,30.2,0h234.6C281.5,0,295,13.5,295,30.2l0,0
	C295,46.9,281.5,60.4,264.8,60.4z"/>
<g>
	<g>
		<text transform="matrix(0.9157 0 0 1 86.297 37.0431)" class="st1 st2 st3">CHANGE ADDRESS</text>
	</g>
	<g>
		<path class="st4" d="M53.4,36.7h13.9v-18"/>
		<path class="st4" d="M61.7,29.7H47.8V45"/>
		<path class="st4" d="M71.4,22.8l-4.2-4.2l-4.2,4.2"/>
		<path class="st4" d="M52,40.8L47.8,45l-4.2-4.2"/>
	</g>
</g>
</svg>
