<?xml version="1.0" encoding="utf-8"?>
<!-- Generator: Adobe Illustrator 26.0.1, SVG Export Plug-In . SVG Version: 6.00 Build 0)  -->
<svg version="1.1" id="Capa_1" xmlns="http://www.w3.org/2000/svg" xmlns:xlink="http://www.w3.org/1999/xlink" x="0px" y="0px"
	 viewBox="0 0 295 60.4" style="enable-background:new 0 0 295 60.4;" xml:space="preserve">
<style type="text/css">
	.st0{fill:#3567D7;}
	.st1{fill:#FFFFFF;}
	.st2{font-family:'Montserrat-ExtraBold';}
	.st3{font-size:20px;}
</style>
<path class="st0" d="M264.8,60.4H30.2C13.5,60.4,0,46.9,0,30.2l0,0C0,13.5,13.5,0,30.2,0h234.6C281.5,0,295,13.5,295,30.2l0,0
	C295,46.9,281.5,60.4,264.8,60.4z"/>
<g>
	<text transform="matrix(0.9157 0 0 1 74.5294 38.6484)" class="st1 st2 st3">CONFIRM CHANGES</text>
	<path class="st1" d="M59.3,17.4l0.7,0.7c1,1,0.9,2.8-0.3,4L44.6,37.2L39.7,39c-0.6,0.2-1.2-0.1-1.3-0.7c0-0.2,0-0.4,0.1-0.6
		l1.8-4.9l15-15C56.5,16.5,58.3,16.4,59.3,17.4L59.3,17.4z M43.9,18.9c0.7,0,1.2,0.6,1.2,1.2c0,0.7-0.6,1.2-1.2,1.2h-5
		c-1.4,0-2.5,1.1-2.5,2.5v14.9c0,1.4,1.1,2.5,2.5,2.5h14.9c1.4,0,2.5-1.1,2.5-2.5v-5c0-0.7,0.6-1.2,1.2-1.2s1.2,0.6,1.2,1.2v5
		c0,2.7-2.2,5-5,5H39c-2.7,0-5-2.2-5-5V23.8c0-2.7,2.2-5,5-5C39,18.9,43.9,18.9,43.9,18.9z"/>
</g>
</svg>
