<?xml version="1.0" encoding="utf-8"?>
<!-- Generator: Adobe Illustrator 26.0.1, SVG Export Plug-In . SVG Version: 6.00 Build 0)  -->
<svg version="1.1" id="Capa_1" xmlns="http://www.w3.org/2000/svg" xmlns:xlink="http://www.w3.org/1999/xlink" x="0px" y="0px"
	 viewBox="0 0 295 60.4" style="enable-background:new 0 0 295 60.4;" xml:space="preserve">
<style type="text/css">
	.st0{fill:#FFE1E8;}
	.st1{fill:#ED3E68;}
	.st2{font-family:'Montserrat-Regular';}
	.st3{font-size:20px;}
	.st4{fill:#EF2252;}
</style>
<g>
	<path class="st0" d="M54.4,53.7c-12.9,0-23.5-10.5-23.5-23.5S41.4,6.7,54.4,6.7h186.2c12.9,0,23.5,10.5,23.5,23.5
		s-10.5,23.5-23.5,23.5H54.4z"/>
	<path class="st1" d="M240.6,7.2c12.7,0,23,10.3,23,23s-10.3,23-23,23H54.4c-12.7,0-23-10.3-23-23s10.3-23,23-23L240.6,7.2
		 M240.6,6.2H54.4c-13.3,0-24,10.7-24,24s10.7,24,24,24h186.2c13.3,0,24-10.7,24-24S253.9,6.2,240.6,6.2L240.6,6.2z"/>
</g>
<g>
	<g>
		<text transform="matrix(0.9157 0 0 1 94.0225 39.0801)" class="st1 st2 st3">Delete Product</text>
	</g>
</g>
<g>
	<g>
		<path class="st4" d="M66.6,23h-3.9v-2c0-0.4-0.3-0.7-0.7-0.7h-5.7c-0.4,0-0.7,0.3-0.7,0.7v2h-3.9c-0.5,0-1,0.4-1,1s0.4,1,1,1h1v14
			c0,0.7,0.5,1.2,1.2,1.2h10.7c0.7,0,1.2-0.5,1.2-1.2v-14h1c0.5,0,1-0.4,1-1S67.2,23,66.6,23z M56,37.4c0,0.4-0.3,0.7-0.7,0.7
			s-0.7-0.3-0.7-0.7V27.3c0-0.4,0.3-0.7,0.7-0.7s0.7,0.3,0.7,0.7V37.4z M59.9,37.4c0,0.4-0.3,0.7-0.7,0.7s-0.7-0.3-0.7-0.7V27.3
			c0-0.4,0.3-0.7,0.7-0.7s0.7,0.3,0.7,0.7V37.4z M61.3,23H57v-1.3h4.3V23z M63.7,37.4c0,0.4-0.3,0.7-0.7,0.7s-0.7-0.3-0.7-0.7V27.3
			c0-0.4,0.3-0.7,0.7-0.7s0.7,0.3,0.7,0.7V37.4z"/>
	</g>
</g>
</svg>
