<?xml version="1.0" encoding="utf-8"?>
<!-- Generator: Adobe Illustrator 26.0.1, SVG Export Plug-In . SVG Version: 6.00 Build 0)  -->
<svg version="1.1" id="Layer_1" xmlns="http://www.w3.org/2000/svg" xmlns:xlink="http://www.w3.org/1999/xlink" x="0px" y="0px"
	 viewBox="0 0 15 15" style="enable-background:new 0 0 15 15;" xml:space="preserve">
<style type="text/css">
	.st0{fill-rule:evenodd;clip-rule:evenodd;fill:#EEEFFB;}
</style>
<path class="st0" d="M0,3.5C0,2.7,0.7,2,1.5,2h12C14.3,2,15,2.7,15,3.5v8c0,0.8-0.7,1.5-1.5,1.5h-12C0.7,13,0,12.3,0,11.5V3.5z M3,6
	c0-1.1,0.9-2,2-2s2,0.9,2,2S6.1,8,5,8S3,7.1,3,6z M12,6H9V5h3V6z M12,9H9V8h3V9z M5,9c-1.1,0-2.1,0.6-2.6,1.6l-0.3,0.7
	c-0.1,0.2-0.1,0.3,0,0.5C2.2,11.9,2.3,12,2.5,12h5c0.2,0,0.3-0.1,0.4-0.2c0.1-0.1,0.1-0.3,0-0.5l-0.3-0.7C7.1,9.6,6.1,9,5,9z"/>
</svg>
