<?xml version="1.0" encoding="utf-8"?>
<!-- Generator: Adobe Illustrator 26.0.1, SVG Export Plug-In . SVG Version: 6.00 Build 0)  -->
<svg version="1.1" id="Capa_1" xmlns="http://www.w3.org/2000/svg" xmlns:xlink="http://www.w3.org/1999/xlink" x="0px" y="0px"
	 viewBox="0 0 60 60" style="enable-background:new 0 0 60 60;" xml:space="preserve">
<style type="text/css">
	.st0{fill:#F04384;}
	.st1{fill:#FFFFFF;}
</style>
<g>
	<path class="st0" d="M9.9,49.3c0,1.9,1.6,3.5,3.5,3.5H49c1.9,0,3.5-1.6,3.5-3.5V28.5H9.9V49.3z"/>
	<path class="st0" d="M48.2,21.6l-4.4-10.5c-0.4-1-1.4-1.6-2.5-1.6h-1.1c-0.3-1.3-1.5-2.3-2.9-2.3H25.1c-1.4,0-2.6,1-2.9,2.3h-1.1
		c-1.1,0-2.1,0.6-2.5,1.6l-4.4,10.5H8.4v6.1H54v-6.1H48.2z M15.8,21.6l4.2-9.9c0.2-0.4,0.6-0.7,1.1-0.7h1.1c0.3,1.3,1.5,2.3,2.9,2.3
		h12.2c1.4,0,2.6-1,2.9-2.3h1.1c0.5,0,0.9,0.3,1.1,0.7l4.2,9.9H15.8z"/>
</g>
<path class="st1" d="M45.6,48.8H16.8c-1.7,0-3-1.4-3-3V35.6c0-1.7,1.4-3,3-3h28.8c1.7,0,3,1.4,3,3v10.2
	C48.6,47.4,47.3,48.8,45.6,48.8z"/>
</svg>
