<?xml version="1.0" encoding="utf-8"?>
<!-- Generator: Adobe Illustrator 26.0.1, SVG Export Plug-In . SVG Version: 6.00 Build 0)  -->
<svg version="1.1" id="Capa_1" xmlns="http://www.w3.org/2000/svg" xmlns:xlink="http://www.w3.org/1999/xlink" x="0px" y="0px"
	 viewBox="0 0 295 60.4" style="enable-background:new 0 0 295 60.4;" xml:space="preserve">
<style type="text/css">
	.st0{fill:#FFE9F1;}
	.st1{fill:#FFAACA;}
	.st2{fill:#F04384;}
	.st3{font-family:'Montserrat-Regular';}
	.st4{font-size:20px;}
</style>
<g>
	<path class="st0" d="M54.4,53.7c-12.9,0-23.5-10.5-23.5-23.5S41.4,6.7,54.4,6.7h186.2c12.9,0,23.5,10.5,23.5,23.5
		s-10.5,23.5-23.5,23.5H54.4z"/>
	<path class="st1" d="M240.6,7.2c12.7,0,23,10.3,23,23s-10.3,23-23,23H54.4c-12.7,0-23-10.3-23-23s10.3-23,23-23L240.6,7.2
		 M240.6,6.2H54.4c-13.3,0-24,10.7-24,24s10.7,24,24,24h186.2c13.3,0,24-10.7,24-24S253.9,6.2,240.6,6.2L240.6,6.2z"/>
</g>
<g>
	<g>
		<text transform="matrix(0.9157 0 0 1 120.9986 39.0801)" class="st2 st3 st4">Log out</text>
	</g>
</g>
<g id="XMLID_6_">
	<g>
		<path id="XMLID_00000008868031275853814240000002814960224910833295_" class="st2" d="M51.7,32.5h14.7c0.7,0,1.3-0.6,1.3-1.3
			s-0.6-1.3-1.3-1.3H51.7l1.6-1.6c0.5-0.5,0.5-1.3,0-1.8c-0.5-0.5-1.3-0.5-1.8,0l-3.8,3.8c0,0-0.1,0.1-0.1,0.1c0,0,0,0,0,0
			c0,0,0,0,0,0.1c0,0,0,0,0,0.1c0,0,0,0,0,0.1c0,0,0,0,0,0.1c0,0,0,0,0,0.1c0,0,0,0,0,0.1c0,0,0,0,0,0.1c0,0,0,0,0,0.1
			c0,0,0,0,0,0.1c0,0,0,0,0,0.1c0,0,0,0,0,0.1c0,0,0,0.1,0,0.1l0,0l0,0c0,0,0,0.1,0,0.1c0,0,0,0,0,0.1c0,0,0,0,0,0.1c0,0,0,0,0,0.1
			c0,0,0,0,0,0.1c0,0,0,0,0,0.1c0,0,0,0,0,0.1c0,0,0,0,0,0.1c0,0,0,0,0,0.1c0,0,0,0,0,0.1c0,0,0,0,0,0.1c0,0,0,0,0,0.1c0,0,0,0,0,0
			c0,0,0.1,0.1,0.1,0.1c0,0,0,0,0,0l3.8,3.8c0.2,0.2,0.6,0.4,0.9,0.4c0.3,0,0.7-0.1,0.9-0.4c0.5-0.5,0.5-1.3,0-1.8L51.7,32.5z"/>
		<path id="XMLID_00000036253186110898817840000000455901971021748103_" class="st2" d="M73.1,19.8H57.1c-0.7,0-1.3,0.6-1.3,1.3v5.1
			c0,0.7,0.6,1.3,1.3,1.3s1.3-0.6,1.3-1.3v-3.8h13.5v17.8H58.3v-3.8c0-0.7-0.6-1.3-1.3-1.3s-1.3,0.6-1.3,1.3v5.1
			c0,0.7,0.6,1.3,1.3,1.3h16.1c0.7,0,1.3-0.6,1.3-1.3V21.1C74.4,20.4,73.8,19.8,73.1,19.8z"/>
	</g>
</g>
</svg>
