<?xml version="1.0" encoding="utf-8"?>
<!-- Generator: Adobe Illustrator 26.0.1, SVG Export Plug-In . SVG Version: 6.00 Build 0)  -->
<svg version="1.1" id="Capa_1" xmlns="http://www.w3.org/2000/svg" xmlns:xlink="http://www.w3.org/1999/xlink" x="0px" y="0px"
	 viewBox="0 0 52.2 52.2" style="enable-background:new 0 0 52.2 52.2;" xml:space="preserve">
<style type="text/css">
	.st0{fill:#6D6D6D;}
	.st1{fill:#C4C4C4;}
</style>
<g>
	<path class="st0" d="M42.9,26.1c0,2.1-1.7,3.8-3.8,3.8h-26c-2.1,0-3.8-1.7-3.8-3.8l0,0c0-2.1,1.7-3.8,3.8-3.8h26
		C41.2,22.3,42.9,24,42.9,26.1L42.9,26.1z"/>
</g>
<g>
	<path class="st1" d="M39.9,1.7c5.7,0,10.5,4.7,10.5,10.5v27.7c0,5.7-4.7,10.5-10.5,10.5H12.2c-5.8,0-10.5-4.7-10.5-10.5V12.2
		c0-5.7,4.7-10.5,10.5-10.5L39.9,1.7 M39.9,0H12.2C5.5,0,0,5.5,0,12.2v27.7c0,6.8,5.5,12.2,12.2,12.2h27.7c6.8,0,12.2-5.5,12.2-12.2
		V12.2C52.2,5.5,46.7,0,39.9,0L39.9,0z"/>
</g>
</svg>
