<?xml version="1.0" encoding="utf-8"?>
<!-- Generator: Adobe Illustrator 26.0.1, SVG Export Plug-In . SVG Version: 6.00 Build 0)  -->
<svg version="1.1" id="Capa_1" xmlns="http://www.w3.org/2000/svg" xmlns:xlink="http://www.w3.org/1999/xlink" x="0px" y="0px"
	 viewBox="0 0 295 60.4" style="enable-background:new 0 0 295 60.4;" xml:space="preserve">
<style type="text/css">
	.st0{fill:#3567D7;}
	.st1{fill:#FFFFFF;}
	.st2{font-family:'Montserrat-ExtraBold';}
	.st3{font-size:18px;}
</style>
<path class="st0" d="M264.8,60.4H30.2C13.5,60.4,0,46.9,0,30.2l0,0C0,13.5,13.5,0,30.2,0h234.6C281.5,0,295,13.5,295,30.2l0,0
	C295,46.9,281.5,60.4,264.8,60.4z"/>
<g>
	<text transform="matrix(0.9157 0 0 1 81.6207 38.9282)" class="st1 st2 st3">MY NOTIFICATIONS</text>
	<path class="st1" d="M48.1,36.8l-2-2c-0.7-0.7-1-1.6-1-2.5V26c0-3.8-2.6-7.2-6.2-8.1c0-0.1,0-0.1,0-0.2c0-1-0.8-1.8-1.8-1.8
		s-1.8,0.8-1.8,1.8c0,0.1,0,0.1,0,0.2c-3.6,0.8-6.2,4-6.2,7.8v6.5c0,0.9-0.4,1.8-1,2.5l-2,2c-0.3,0.3-0.5,0.8-0.5,1.3l0,0
		c0,1.1,0.9,1.9,1.9,1.9h6.1v0.9c0,2,1.6,3.6,3.6,3.6s3.6-1.6,3.6-3.6V40h6.1c1.1,0,1.9-0.9,1.9-1.9l0,0
		C48.6,37.6,48.4,37.1,48.1,36.8L48.1,36.8z"/>
</g>
</svg>
