<?xml version="1.0" encoding="utf-8"?>
<!-- Generator: Adobe Illustrator 23.0.0, SVG Export Plug-In . SVG Version: 6.00 Build 0)  -->
<svg version="1.1" id="Capa_1" xmlns="http://www.w3.org/2000/svg" xmlns:xlink="http://www.w3.org/1999/xlink" x="0px" y="0px"
	 viewBox="0 0 271.3 271.3" style="enable-background:new 0 0 271.3 271.3;" xml:space="preserve">
<style type="text/css">
	.st0{fill:#F04384;}
</style>
<path class="st0" d="M218.3,106h-8.7V73.9c0-40.7-33.1-73.9-73.9-73.9C94.9,0,61.8,33.1,61.8,73.9V106H53c-8.9,0-16.1,7.2-16.1,16.1
	v133.1c0,8.9,7.2,16.1,16.1,16.1h165.3c8.9,0,16.1-7.2,16.1-16.1V122.1C234.4,113.2,227.2,106,218.3,106z M151.3,190.2v26.4
	c0,8.7-7,15.7-15.7,15.7s-15.7-7-15.7-15.7v-26.4c-5.9-4.6-9.7-11.8-9.7-19.9c0-14,11.3-25.3,25.3-25.3s25.3,11.3,25.3,25.3
	C161,178.4,157.2,185.6,151.3,190.2z M169.6,104.5h-67.8V73.9c0-18.7,15.2-33.9,33.9-33.9s33.9,15.2,33.9,33.9L169.6,104.5
	L169.6,104.5z"/>
</svg>
