<?xml version="1.0" encoding="utf-8"?>
<!-- Generator: Adobe Illustrator 26.0.1, SVG Export Plug-In . SVG Version: 6.00 Build 0)  -->
<svg version="1.1" id="Capa_1" xmlns="http://www.w3.org/2000/svg" xmlns:xlink="http://www.w3.org/1999/xlink" x="0px" y="0px"
	 viewBox="0 0 60.4 60.4" style="enable-background:new 0 0 60.4 60.4;" xml:space="preserve">
<style type="text/css">
	.st0{fill:#6D6D6D;}
	.st1{fill:#C4C4C4;}
</style>
<g>
	<path class="st0" d="M44.9,26.1l-11.2,0l0-10.4c0-2-1.6-3.6-3.6-3.6c-2,0-3.6,1.6-3.6,3.6v10.4l-10.9,0c-2,0-3.6,1.6-3.6,3.6
		c0,2,1.6,3.6,3.6,3.6h10.9v11.7c0,2,1.6,3.6,3.6,3.6c2,0,3.6-1.6,3.6-3.6V33.2h11.2c2,0,3.6-1.6,3.6-3.6
		C48.5,27.7,46.9,26.1,44.9,26.1z"/>
</g>
<g>
	<path class="st1" d="M46.3,2.2c6.6,0,12.1,5.4,12.1,12.1v32c0,6.6-5.4,12.1-12.1,12.1h-32C7.6,58.4,2.2,53,2.2,46.3v-32
		c0-6.6,5.4-12.1,12.1-12.1H46.3 M46.3,0.2h-32C6.5,0.2,0.2,6.5,0.2,14.3v32c0,7.8,6.3,14.1,14.1,14.1h32c7.8,0,14.1-6.3,14.1-14.1
		v-32C60.4,6.5,54.1,0.2,46.3,0.2L46.3,0.2z"/>
</g>
</svg>
