<?xml version="1.0" encoding="utf-8"?>
<!-- Generator: Adobe Illustrator 26.0.1, SVG Export Plug-In . SVG Version: 6.00 Build 0)  -->
<svg version="1.1" id="Capa_1" xmlns="http://www.w3.org/2000/svg" xmlns:xlink="http://www.w3.org/1999/xlink" x="0px" y="0px"
	 viewBox="0 0 295 60.4" style="enable-background:new 0 0 295 60.4;" xml:space="preserve">
<style type="text/css">
	.st0{fill:#3567D7;}
	.st1{fill:#FFFFFF;}
	.st2{font-family:'Montserrat-ExtraBold';}
	.st3{font-size:18px;}
</style>
<path class="st0" d="M264.8,60.4H30.2C13.5,60.4,0,46.9,0,30.2l0,0C0,13.5,13.5,0,30.2,0h234.6C281.5,0,295,13.5,295,30.2l0,0
	C295,46.9,281.5,60.4,264.8,60.4z"/>
<g>
	<g>
		<text transform="matrix(0.9157 0 0 1 108.1066 38.2404)" class="st1 st2 st3">PRICE TRACES</text>
	</g>
	<g>
		<g>
			<path class="st1" d="M87,34.5c-1.7-2.5-3.9-3.9-6.2-4c-0.1,0-0.3,0-0.4,0c-0.2,0-0.5,0-0.7,0.1c-2.2,0.3-4.2,1.7-5.7,4l-0.2,0.3
				l0.2,0.3c1.7,2.6,4,4,6.5,4c2.5,0,4.8-1.4,6.5-4l0.2-0.3L87,34.5z M82.7,33.7c0,1.3-1,2.3-2.3,2.3s-2.3-1-2.3-2.3
				c0-1.1,0.8-2,1.8-2.3c0.2,0,0.4,0,0.6,0c0,0,0,0,0,0C81.8,31.5,82.7,32.5,82.7,33.7z M80.5,38.2c-2.1,0-4-1.2-5.5-3.4
				c0.7-1.1,1.6-1.9,2.5-2.5c-0.2,0.4-0.3,0.9-0.3,1.3c0,1.8,1.5,3.2,3.2,3.2s3.2-1.5,3.2-3.2c0-0.6-0.1-1.1-0.4-1.6
				c1,0.6,2,1.5,2.8,2.7C84.6,37,82.6,38.2,80.5,38.2z"/>
			<polygon class="st1" points="59.7,32.4 71.6,44.3 74.4,41.4 62.6,29.5 			"/>
			<path class="st1" d="M72.8,35.9l-0.7-1l0.7-1.1c2-3,4.7-4.7,7.7-4.7c1.7,0,3.3,0.5,4.7,1.5l1-1V23L81,17.7h-6.6L63.3,28.9
				l11.8,11.8l1.2-1.2c0,0,0.1-0.1,0.1-0.1C75.1,38.6,73.9,37.4,72.8,35.9z M79.7,22c1,0,1.9,0.8,1.9,1.9s-0.8,1.9-1.9,1.9
				s-1.9-0.8-1.9-1.9S78.7,22,79.7,22z"/>
		</g>
	</g>
</g>
</svg>
