<?xml version="1.0" encoding="utf-8"?>
<!-- Generator: Adobe Illustrator 26.0.1, SVG Export Plug-In . SVG Version: 6.00 Build 0)  -->
<svg version="1.1" id="Capa_1" xmlns="http://www.w3.org/2000/svg" xmlns:xlink="http://www.w3.org/1999/xlink" x="0px" y="0px"
	 viewBox="0 0 295 60.4" style="enable-background:new 0 0 295 60.4;" xml:space="preserve">
<style type="text/css">
	.st0{fill:#3567D7;}
	.st1{fill:#FFFFFF;}
	.st2{font-family:'Montserrat-ExtraBold';}
	.st3{font-size:20px;}
</style>
<path class="st0" d="M264.8,60.4H30.2C13.5,60.4,0,46.9,0,30.2l0,0C0,13.5,13.5,0,30.2,0h234.6C281.5,0,295,13.5,295,30.2l0,0
	C295,46.9,281.5,60.4,264.8,60.4z"/>
<g>
	<text transform="matrix(0.9157 0 0 1 103.813 38.9282)" class="st1 st2 st3">PRINT FORM</text>
	<g>
		<g>
			<path class="st1" d="M57.4,25.1H33.2c-1.3,0-2.4,1.1-2.4,2.4v8.2c0,1.3,1.1,2.4,2.4,2.4h3.5v3.4c0,1.3,1.1,2.4,2.4,2.4h12.5
				c1.3,0,2.4-1.1,2.4-2.4v-3.4h3.5c1.3,0,2.4-1.1,2.4-2.4v-8.2C59.7,26.2,58.7,25.1,57.4,25.1z M34.9,31.2c-1,0-1.8-0.8-1.8-1.8
				s0.8-1.8,1.8-1.8c1,0,1.8,0.8,1.8,1.8C36.6,30.4,35.9,31.2,34.9,31.2z M51.1,40.3c0,0.5-0.4,0.9-0.9,0.9h-10
				c-0.5,0-0.9-0.4-0.9-0.9v-5.8c0-0.5,0.4-0.9,0.9-0.9h10c0.5,0,0.9,0.4,0.9,0.9V40.3z"/>
			<path class="st1" d="M53.8,21.4c0,0.5-0.4,0.9-0.9,0.9H37.5c-0.5,0-0.9-0.4-0.9-0.9v-4c0-0.5,0.4-0.9,0.9-0.9H53
				c0.5,0,0.9,0.4,0.9,0.9V21.4z"/>
		</g>
	</g>
</g>
</svg>
