<?xml version="1.0" encoding="utf-8"?>
<!-- Generator: Adobe Illustrator 26.0.1, SVG Export Plug-In . SVG Version: 6.00 Build 0)  -->
<svg version="1.1" id="Capa_1" xmlns="http://www.w3.org/2000/svg" xmlns:xlink="http://www.w3.org/1999/xlink" x="0px" y="0px"
	 viewBox="0 0 53 53" style="enable-background:new 0 0 53 53;" xml:space="preserve">
<style type="text/css">
	.st0{fill:#3D3639;}
	.st1{fill:#F0F1FB;}
</style>
<path class="st0" d="M40.3,43.3c-0.7,0-1.3-0.3-1.8-0.7L29.2,33l-0.7,0.3c-1.8,0.9-3.8,1.4-5.8,1.4c-6.9,0-12.5-5.6-12.5-12.5
	c0-6.9,5.6-12.5,12.5-12.5s12.5,5.6,12.5,12.5c0,2.4-0.7,4.7-2,6.7l-0.4,0.7l9.2,9.4c1,1,0.9,2.5,0,3.5C41.6,43,40.9,43.3,40.3,43.3
	z M22.8,14.7c-4.1,0-7.5,3.4-7.5,7.5s3.4,7.5,7.5,7.5c4.1,0,7.5-3.4,7.5-7.5S26.9,14.7,22.8,14.7z"/>
<image style="overflow:visible;" width="44" height="30" xlink:href="B3B5732E.jpg"  transform="matrix(1 0 0 1 -15.8723 53)">
</image>
<rect x="-28.4" y="24.4" class="st1" width="9.1" height="9.1"/>
</svg>
