<?xml version="1.0" encoding="utf-8"?>
<!-- Generator: Adobe Illustrator 23.0.0, SVG Export Plug-In . SVG Version: 6.00 Build 0)  -->
<svg version="1.1" id="Capa_1" xmlns="http://www.w3.org/2000/svg" xmlns:xlink="http://www.w3.org/1999/xlink" x="0px" y="0px"
	 viewBox="0 0 240 240" style="enable-background:new 0 0 240 240;" xml:space="preserve">
<style type="text/css">
	.st0{fill:#F7619E;}
</style>
<path class="st0" d="M26.7,45.9L0,38.8l7.7-29l49,13v20.9H240l-31.3,102h-152v23h145.6l-8.2,29h-19.9c2.4,3.4,3.8,7.5,3.8,11.9
	c0,11.4-9.2,20.6-20.6,20.6s-20.6-9.2-20.6-20.6c0-4.4,1.4-8.5,3.8-11.9H84.2c2.4,3.4,3.8,7.5,3.8,11.9c0,11.4-9.2,20.6-20.6,20.6
	s-20.6-9.2-20.6-20.6c0-4.4,1.4-8.5,3.8-11.9h-9.1h-15C26.7,197.7,26.7,45.9,26.7,45.9z"/>
</svg>
