<?xml version="1.0" encoding="utf-8"?>
<!-- Generator: Adobe Illustrator 26.0.1, SVG Export Plug-In . SVG Version: 6.00 Build 0)  -->
<svg version="1.1" id="Layer_1" xmlns="http://www.w3.org/2000/svg" xmlns:xlink="http://www.w3.org/1999/xlink" x="0px" y="0px"
	 viewBox="0 0 810.9 476.9" style="enable-background:new 0 0 810.9 476.9;" xml:space="preserve">
<style type="text/css">
	.st0{fill:#FFFFFF;}
</style>
<g>
	<path class="st0" d="M84.2,379.9c-26.8,0-48.5,21.8-48.5,48.5s21.8,48.5,48.5,48.5c26.8,0,48.5-21.8,48.5-48.5
		S110.9,379.9,84.2,379.9z M84.2,446.9c-10.2,0-18.5-8.3-18.5-18.5s8.3-18.5,18.5-18.5s18.5,8.3,18.5,18.5S94.4,446.9,84.2,446.9z"
		/>
	<path class="st0" d="M342.7,379.9c-26.8,0-48.5,21.8-48.5,48.5s21.8,48.5,48.5,48.5s48.5-21.8,48.5-48.5S369.5,379.9,342.7,379.9z
		 M342.7,446.9c-10.2,0-18.5-8.3-18.5-18.5s8.3-18.5,18.5-18.5s18.5,8.3,18.5,18.5S352.9,446.9,342.7,446.9z"/>
	<path class="st0" d="M413.3,0l-9.8,60H2l28.7,175.9c4,24.7,26.8,44,51.8,44h284.9l-6.6,40H50.6v30h335.7L438.8,30h36.1V0H413.3z
		 M372.4,249.9H82.5c-10.2,0-20.5-8.8-22.2-18.8l-23-141h361.3L372.4,249.9z"/>
</g>
<polygon class="st0" points="810.9,90.1 776.1,319.9 429.5,319.9 464.3,90.1 "/>
</svg>
