<?xml version="1.0" encoding="utf-8"?>
<!-- Generator: Adobe Illustrator 26.0.1, SVG Export Plug-In . SVG Version: 6.00 Build 0)  -->
<svg version="1.1" id="Capa_1" xmlns="http://www.w3.org/2000/svg" xmlns:xlink="http://www.w3.org/1999/xlink" x="0px" y="0px"
	 viewBox="0 0 295 60.4" style="enable-background:new 0 0 295 60.4;" xml:space="preserve">
<style type="text/css">
	.st0{fill:#3567D7;}
	.st1{fill:#FFFFFF;}
	.st2{font-family:'Montserrat-ExtraBold';}
	.st3{font-size:20px;}
</style>
<path class="st0" d="M264.8,60.4H30.2C13.5,60.4,0,46.9,0,30.2l0,0C0,13.5,13.5,0,30.2,0h234.6C281.5,0,295,13.5,295,30.2l0,0
	C295,46.9,281.5,60.4,264.8,60.4z"/>
<g>
	<text transform="matrix(0.9157 0 0 1 78.0206 38.6484)" class="st1 st2 st3">SUBMIT REWARDS</text>
	<g>
		<g>
			<g>
				<path class="st1" d="M37.9,19.1c-3.5,0-6.3,2.8-6.3,6.3s2.8,6.3,6.3,6.3c3.5,0,6.3-2.8,6.3-6.3S41.4,19.1,37.9,19.1z"/>
			</g>
		</g>
	</g>
	<g>
		<g>
			<g>
				<path class="st1" d="M48.2,22.1l-0.5-3.7l-3.4-1.7L41.6,14l-3.7,0.6L34.1,14l-2.6,2.7l-3.4,1.7l-0.5,3.7l-1.8,3.4l1.8,3.4
					l0.5,3.7l3.4,1.7l2.6,2.7l3.7-0.6l3.7,0.6l2.6-2.7l3.4-1.7l0.5-3.7l1.8-3.4L48.2,22.1z M37.9,33.7c-4.6,0-8.3-3.7-8.3-8.3
					s3.7-8.3,8.3-8.3s8.3,3.7,8.3,8.3S42.4,33.7,37.9,33.7z"/>
			</g>
		</g>
	</g>
	<g>
		<g>
			<g>
				<polygon class="st1" points="45.5,35.8 43.4,37.9 43.4,44.3 45.9,45.4 45.9,35.6 				"/>
			</g>
		</g>
	</g>
	<g>
		<g>
			<g>
				<polygon class="st1" points="30.3,35.8 29.8,35.6 29.8,45.4 32.4,44.3 32.4,37.9 				"/>
			</g>
		</g>
	</g>
	<g>
		<g>
			<g>
				<polygon class="st1" points="37.9,38.2 34.3,38.9 34.3,46.4 37.9,45 41.4,46.4 41.4,38.9 				"/>
			</g>
		</g>
	</g>
</g>
</svg>
