<?xml version="1.0" encoding="utf-8"?>
<!-- Generator: Adobe Illustrator 26.0.1, SVG Export Plug-In . SVG Version: 6.00 Build 0)  -->
<svg version="1.1" id="Capa_1" xmlns="http://www.w3.org/2000/svg" xmlns:xlink="http://www.w3.org/1999/xlink" x="0px" y="0px"
	 viewBox="0 0 295 60.4" style="enable-background:new 0 0 295 60.4;" xml:space="preserve">
<style type="text/css">
	.st0{fill:#FFE9F1;}
	.st1{fill:#FFAACA;}
	.st2{fill:#F04384;}
	.st3{font-family:'Montserrat-Regular';}
	.st4{font-size:20px;}
</style>
<g>
	<path class="st0" d="M54.4,53.7c-12.9,0-23.5-10.5-23.5-23.5S41.4,6.7,54.4,6.7h186.2c12.9,0,23.5,10.5,23.5,23.5
		s-10.5,23.5-23.5,23.5H54.4z"/>
	<path class="st1" d="M240.6,7.2c12.7,0,23,10.3,23,23s-10.3,23-23,23H54.4c-12.7,0-23-10.3-23-23s10.3-23,23-23L240.6,7.2
		 M240.6,6.2H54.4c-13.3,0-24,10.7-24,24s10.7,24,24,24h186.2c13.3,0,24-10.7,24-24S253.9,6.2,240.6,6.2L240.6,6.2z"/>
</g>
<g>
	<g>
		<text transform="matrix(0.9157 0 0 1 94.0225 39.0801)" class="st2 st3 st4">Update Product</text>
	</g>
</g>
<path class="st1" d="M72.5,19.3l0.6,0.6c0.9,0.9,0.8,2.4-0.3,3.4L60,36.1l-4.2,1.5c-0.5,0.2-1-0.1-1.1-0.6c0-0.2,0-0.3,0.1-0.5
	l1.5-4.2l12.8-12.8C70.1,18.5,71.6,18.4,72.5,19.3L72.5,19.3z M59.4,20.6c0.6,0,1,0.5,1,1c0,0.6-0.5,1-1,1h-4.3
	c-1.2,0-2.1,0.9-2.1,2.1v12.7c0,1.2,0.9,2.1,2.1,2.1h12.7c1.2,0,2.1-0.9,2.1-2.1v-4.3c0-0.6,0.5-1,1-1s1,0.5,1,1v4.3
	c0,2.3-1.9,4.3-4.3,4.3H55.2c-2.3,0-4.3-1.9-4.3-4.3V24.7c0-2.3,1.9-4.3,4.3-4.3C55.2,20.6,59.4,20.6,59.4,20.6z"/>
</svg>
