<?xml version="1.0" encoding="utf-8"?>
<!-- Generator: Adobe Illustrator 26.0.1, SVG Export Plug-In . SVG Version: 6.00 Build 0)  -->
<svg version="1.1" id="Capa_1" xmlns="http://www.w3.org/2000/svg" xmlns:xlink="http://www.w3.org/1999/xlink" x="0px" y="0px"
	 viewBox="0 0 295 60.4" style="enable-background:new 0 0 295 60.4;" xml:space="preserve">
<style type="text/css">
	.st0{fill:#FFE9F1;}
	.st1{fill:#FFAACA;}
	.st2{fill:#F04384;}
	.st3{font-family:'Montserrat-Regular';}
	.st4{font-size:20px;}
</style>
<g>
	<path class="st0" d="M54.4,53.7c-12.9,0-23.5-10.5-23.5-23.5S41.4,6.7,54.4,6.7h186.2c12.9,0,23.5,10.5,23.5,23.5
		s-10.5,23.5-23.5,23.5H54.4z"/>
	<path class="st1" d="M240.6,7.2c12.7,0,23,10.3,23,23s-10.3,23-23,23H54.4c-12.7,0-23-10.3-23-23s10.3-23,23-23L240.6,7.2
		 M240.6,6.2H54.4c-13.3,0-24,10.7-24,24s10.7,24,24,24h186.2c13.3,0,24-10.7,24-24S253.9,6.2,240.6,6.2L240.6,6.2z"/>
</g>
<g>
	<g>
		<text transform="matrix(0.9157 0 0 1 99.6764 39.0801)" class="st2 st3 st4">Update Order</text>
	</g>
</g>
<g>
	<g>
		<path class="st2" d="M73.4,26.6L59.9,40.2c-1,1-2.6,1-3.6,0l-7-7c-1-1-1-2.6,0-3.6c1-1,2.6-1,3.6,0l5.2,5.2L69.8,23
			c1-1,2.6-1,3.6,0C74.4,24,74.4,25.6,73.4,26.6z"/>
	</g>
</g>
</svg>
