<?xml version="1.0" encoding="utf-8"?>
<!-- Generator: Adobe Illustrator 26.0.1, SVG Export Plug-In . SVG Version: 6.00 Build 0)  -->
<svg version="1.1" id="Layer_1" xmlns="http://www.w3.org/2000/svg" xmlns:xlink="http://www.w3.org/1999/xlink" x="0px" y="0px"
	 viewBox="0 0 32 32" style="enable-background:new 0 0 32 32;" xml:space="preserve">
<style type="text/css">
	.st0{fill-rule:evenodd;clip-rule:evenodd;fill:#FFE9F1;}
	.st1{fill:#EE3E80;}
</style>
<g>
	<circle class="st0" cx="16" cy="16" r="16"/>
	<path class="st1" d="M15.7,14.7c-2,0-3.5-1.7-3.5-3.9S12.6,7,15.7,7s3.5,1.7,3.5,3.9S17.6,14.7,15.7,14.7L15.7,14.7z M22.3,20.6
		c0,0.2,0,0.3,0,0.3v0.3c0,0-1,1.8-6.7,1.8C10,23,9,21.2,9,21.2v-0.4c0,0,0,0,0-0.3c0.1-3.7,0.6-4.8,4.7-5.5c0,0,0.6,0.7,1.9,0.7
		s1.9-0.7,1.9-0.7C21.7,15.7,22.2,16.8,22.3,20.6z"/>
</g>
</svg>
