<?xml version="1.0" encoding="utf-8"?>
<!-- Generator: Adobe Illustrator 26.0.1, SVG Export Plug-In . SVG Version: 6.00 Build 0)  -->
<svg version="1.1" id="Layer_1" xmlns="http://www.w3.org/2000/svg" xmlns:xlink="http://www.w3.org/1999/xlink" x="0px" y="0px"
	 viewBox="0 0 32 32" style="enable-background:new 0 0 32 32;" xml:space="preserve">
<style type="text/css">
	.st0{fill-rule:evenodd;clip-rule:evenodd;fill:#FFE9F1;}
	.st1{fill:#EE3E80;}
</style>
<g>
	<circle class="st0" cx="16" cy="16" r="16"/>
	<path class="st1" d="M23.7,21.3c0.2,0,0.3-0.2,0.3-0.3c0-5.6-6.7-6.8-8.2-7v-2.6c0-0.1-0.1-0.2-0.2-0.3c-0.1-0.1-0.2-0.1-0.4,0
		l-7.1,4.8C8,16,8,16.2,8.1,16.3c0,0,0.1,0.1,0.1,0.1l7.1,4.8c0,0.2,0.2,0.3,0.3,0.3s0.3-0.2,0.3-0.3c0-0.1-0.1-0.2-0.2-0.3v-2.8
		c1.1,0,2,0.1,2.8,0.2c3.7,0.4,4.7,2.7,4.7,2.8C23.4,21.2,23.6,21.3,23.7,21.3z"/>
</g>
</svg>
