<?xml version="1.0" encoding="utf-8"?>
<!-- Generator: Adobe Illustrator 26.0.1, SVG Export Plug-In . SVG Version: 6.00 Build 0)  -->
<svg version="1.1" id="Layer_1" xmlns="http://www.w3.org/2000/svg" xmlns:xlink="http://www.w3.org/1999/xlink" x="0px" y="0px"
	 viewBox="0 0 32 32" style="enable-background:new 0 0 32 32;" xml:space="preserve">
<style type="text/css">
	.st0{fill-rule:evenodd;clip-rule:evenodd;fill:#FFE9F1;}
	.st1{fill:#EE3E80;}
</style>
<g>
	<circle class="st0" cx="16" cy="16" r="16"/>
	<path class="st1" d="M16.1,8c-3.1,0.1-5.7,2.6-6,5.8c-0.1,0.6,0,1.2,0.1,1.8c0,0,0,0.1,0,0.2c0.1,0.4,0.2,0.9,0.4,1.3
		c0.6,1.5,2.1,4.1,5.4,6.8c0.2,0.2,0.5,0.2,0.7,0c3.3-2.8,4.7-5.3,5.4-6.8c0.2-0.4,0.3-0.8,0.4-1.3c0-0.1,0-0.2,0-0.2
		c0.1-0.4,0.1-0.8,0.1-1.2C22.6,10.8,19.6,7.9,16.1,8L16.1,8z M16.3,17.6c-1.7,0-3.1-1.4-3.1-3.1c0-1.7,1.4-3.1,3.1-3.1
		c1.7,0,3.1,1.4,3.1,3.1C19.3,16.2,18,17.6,16.3,17.6z"/>
</g>
</svg>
