<?xml version="1.0" encoding="utf-8"?>
<!-- Generator: Adobe Illustrator 26.0.1, SVG Export Plug-In . SVG Version: 6.00 Build 0)  -->
<svg version="1.1" id="Layer_1" xmlns="http://www.w3.org/2000/svg" xmlns:xlink="http://www.w3.org/1999/xlink" x="0px" y="0px"
	 viewBox="0 0 32 32" style="enable-background:new 0 0 32 32;" xml:space="preserve">
<style type="text/css">
	.st0{fill-rule:evenodd;clip-rule:evenodd;fill:#FFE9F1;}
	.st1{fill:#EE3E80;}
</style>
<g>
	<circle class="st0" cx="16" cy="16" r="16"/>
	<path class="st1" d="M19.1,9c0.3,0,0.5,0.2,0.5,0.5v2c0,0.3-0.2,0.5-0.5,0.5h-5.3c-0.3,0-0.5-0.2-0.5-0.5v-2c0-0.3,0.2-0.5,0.5-0.5
		h1.2c0.2-0.6,0.8-1,1.5-1s1.3,0.4,1.5,1C17.9,9,19.1,9,19.1,9z M21,9.6c0.6,0,1,0.5,1,1V23c0,0.6-0.4,1-1,1H11c-0.6,0-1-0.5-1-1
		V10.6c0-0.6,0.4-1,1-1h1v1.5c0,0.9,0.7,1.5,1.5,1.5h5c0.8,0,1.5-0.7,1.5-1.5V9.6H21z M15.9,18.7c0.2-0.2,0.2-0.5,0-0.7
		c-0.2-0.2-0.5-0.2-0.7,0c0,0,0,0,0,0l-1.6,1.7L12.9,19c-0.2-0.2-0.5-0.2-0.7,0c0,0,0,0,0,0c-0.2,0.2-0.2,0.5,0,0.7l1,1
		c0.2,0.2,0.5,0.2,0.7,0c0,0,0,0,0,0L15.9,18.7z M15.9,14.6c0.2-0.2,0.2-0.5,0-0.7c-0.2-0.2-0.5-0.2-0.7,0c0,0,0,0,0,0l-1.6,1.7
		l-0.6-0.7c-0.2-0.2-0.5-0.2-0.7,0c0,0,0,0,0,0c-0.2,0.2-0.2,0.5,0,0.7l1,1c0.2,0.2,0.5,0.2,0.7,0c0,0,0,0,0,0L15.9,14.6L15.9,14.6z
		 M19.5,19.9c0.3,0,0.5-0.2,0.5-0.5c0-0.3-0.2-0.5-0.5-0.5c0,0,0,0,0,0h-2c-0.3,0-0.5,0.2-0.5,0.5s0.2,0.5,0.5,0.5H19.5z M19.5,15.8
		c0.3,0,0.5-0.2,0.5-0.5c0-0.3-0.2-0.5-0.5-0.5c0,0,0,0,0,0h-2c-0.3,0-0.5,0.2-0.5,0.5s0.2,0.5,0.5,0.5H19.5z"/>
</g>
</svg>
