<?xml version="1.0" encoding="utf-8"?>
<!-- Generator: Adobe Illustrator 26.0.1, SVG Export Plug-In . SVG Version: 6.00 Build 0)  -->
<svg version="1.1" id="Layer_1" xmlns="http://www.w3.org/2000/svg" xmlns:xlink="http://www.w3.org/1999/xlink" x="0px" y="0px"
	 viewBox="0 0 512 512" style="enable-background:new 0 0 512 512;" xml:space="preserve">
<style type="text/css">
	.st0{fill:#C7CFE2;}
	.st1{fill:#AFB9D2;}
	.st2{fill:#959CB5;}
	.st3{fill:#5B5D6E;}
	.st4{fill:#B4E6FF;}
	.st5{fill:#7F8499;}
	.st6{fill:#9BD6FF;}
	.st7{fill:#F1F4FB;}
	.st8{fill:#FFC850;}
	.st9{fill:#BB5FFF;}
	.st10{fill:#9347D2;}
	.st11{fill:#FFFFFF;}
	.st12{font-family:'Poppins-Medium';}
	.st13{font-size:105.9396px;}
</style>
<path class="st0" d="M482.9,238.7H379l-21.4,121.2h131.3c4.2,0,7.8-3,8.5-7.2l14-79.4C514.8,254.2,502.1,238.7,482.9,238.7z"/>
<path class="st1" d="M376,256h103.9c9.6,0,15.9,7.8,14.3,17.3l-15.3,86.6H357.7L376,256z"/>
<path class="st2" d="M478.2,359.9c1-29.4-20.2-51.9-50.8-51.9s-59.7,22.6-69.1,51.9H478.2z"/>
<path class="st0" d="M466.6,134.8h-69.3l-6.1,34.6h91.6c2.1,0,3.9-1.5,4.3-3.6l0.9-5.1C490.5,146.4,481,134.8,466.6,134.8z"/>
<path class="st3" d="M460,368.6c-4.2,23.9-27,43.3-50.9,43.3s-39.9-19.4-35.7-43.3c4.2-23.9,27-43.3,50.9-43.3
	S464.3,344.6,460,368.6z"/>
<polygon class="st4" points="482.9,238.7 477.8,169.4 391.3,169.4 379,238.7 "/>
<path class="st0" d="M442.7,368.6c-2.5,14.3-16.2,26-30.6,26s-23.9-11.6-21.4-26s16.2-26,30.6-26
	C435.7,342.6,445.2,354.2,442.7,368.6z"/>
<path class="st5" d="M425.4,368.6c-0.8,4.8-5.4,8.7-10.2,8.7c-4.8,0-8-3.9-7.1-8.7c0.8-4.8,5.4-8.7,10.2-8.7
	C423.1,359.9,426.2,363.8,425.4,368.6z"/>
<path class="st6" d="M422.8,186.7h56.3l-1.3-17.3h-86.6L379,238.7h26l7.6-43.3C413.5,190.6,418,186.7,422.8,186.7z"/>
<path class="st1" d="M394.3,152.1h69.3c4.8,0,8,3.9,7.1,8.7l-1.5,8.7h-77.9L394.3,152.1z"/>
<polygon class="st7" points="485.5,273.3 511.5,273.3 505.4,307.9 479.4,307.9 "/>
<path class="st8" d="M468.2,273.3l-3.1,17.3c-1.7,9.6,4.7,17.3,14.3,17.3h8.7l6.1-34.6L468.2,273.3L468.2,273.3z"/>
<path class="st9" d="M394.8,100.2H100.4c-4.8,0-9.3,3.9-10.2,8.7L59.7,282h-26c-4.8,0-9.3,3.9-10.2,8.7c-0.8,4.8,2.3,8.7,7.1,8.7
	h60.6c4.8,0,8,3.9,7.1,8.7c-0.8,4.8-5.4,8.7-10.2,8.7H53.6l-6.1,34.6c-0.8,4.8,2.3,8.7,7.1,8.7h303l44.3-251.1
	C402.8,104,399.6,100.2,394.8,100.2z"/>
<path class="st10" d="M188.4,316.6c-8.1-5.4-18-8.7-29.4-8.7s-22.4,3.2-32.4,8.7H10.3c-4.8,0-9.3,3.9-10.2,8.7
	c-0.8,4.8,2.3,8.7,7.1,8.7h43.3l-3.1,17.3c-0.8,4.8,2.3,8.7,7.1,8.7h303l7.6-43.3L188.4,316.6L188.4,316.6z"/>
<path class="st3" d="M191.6,368.6c-4.2,23.9-27,43.3-50.9,43.3s-39.9-19.4-35.7-43.3c4.2-23.9,27-43.3,50.9-43.3
	S195.9,344.6,191.6,368.6z"/>
<path class="st0" d="M174.3,368.6c-2.5,14.3-16.2,26-30.6,26s-23.9-11.6-21.4-26c2.5-14.3,16.2-26,30.6-26
	C167.3,342.6,176.9,354.2,174.3,368.6z"/>
<path class="st5" d="M157,368.6c-0.8,4.8-5.4,8.7-10.2,8.7c-4.8,0-8-3.9-7.1-8.7c0.8-4.8,5.4-8.7,10.2-8.7S157.8,363.8,157,368.6z"
	/>
<path class="st11" d="M339.1,249.1l-30.1-26c-3.3-2.9-8.9-2.1-12.4,1.7c-3.5,3.8-3.7,9.2-0.4,12.1l12,10.4H106.6
	c-4.8,0-9.3,3.9-10.2,8.7c-0.8,4.8,2.3,8.7,7.1,8.7h201.6l-15.7,10.4c-4.3,2.9-6.1,8.3-3.9,12.1c1.3,2.3,3.7,3.5,6.3,3.5
	c1.8,0,3.7-0.6,5.5-1.7l39.2-26c2.5-1.6,4.2-4.2,4.7-6.9S341,250.7,339.1,249.1z"/>
<text transform="matrix(1 0 0 1 -171.7891 561.5662)" class="st10 st12 st13">Cash on Delivery</text>
</svg>
