<?xml version="1.0" encoding="utf-8"?>
<!-- Generator: Adobe Illustrator 16.0.0, SVG Export Plug-In . SVG Version: 6.00 Build 0)  -->
<!DOCTYPE svg PUBLIC "-//W3C//DTD SVG 1.1//EN" "http://www.w3.org/Graphics/SVG/1.1/DTD/svg11.dtd">
<svg version="1.1" id="Layer_1" xmlns="http://www.w3.org/2000/svg" xmlns:xlink="http://www.w3.org/1999/xlink" x="0px" y="0px"
	 width="194px" height="56px" viewBox="0 0 194 56" enable-background="new 0 0 194 56" xml:space="preserve">
<g>
	<path fill="#FFFFFF" d="M31.517,30.357c0,1.946-1.003,3.466-3.001,4.532c-1.639,0.88-3.592,1.319-5.865,1.319
		c-3.245,0-5.944-0.999-8.095-2.991c-2.152-1.993-3.228-4.509-3.228-7.53c0-2.573,1.101-4.83,3.293-6.769
		c2.2-1.94,4.696-2.91,7.486-2.91c1.998,0,3.715,0.454,5.136,1.359c1.636,1.022,2.452,2.416,2.452,4.196
		c0,0.915-0.24,1.652-0.729,2.215c-0.509,0.653-1.237,0.979-2.181,0.979l-0.996-0.093c0-1.467-0.213-2.513-0.642-3.136
		c-0.542-0.82-1.528-1.231-2.956-1.231c-1.241,0-2.335,0.539-3.275,1.614c-0.934,1.078-1.407,2.207-1.407,3.396
		c0,2.454,0.666,4.23,1.999,5.306c1.244,1.042,3.197,1.563,5.865,1.563c2.515,0,4.23-1.13,5.137-3.392
		C31.183,28.958,31.517,29.48,31.517,30.357"/>
	<path fill="#FFFFFF" d="M57.483,27.854c0,2.628-1.292,4.734-3.868,6.317c-2.055,1.28-4.198,1.908-6.41,1.908
		c-3.452,0-6.395-0.728-8.819-2.207c-3.066-1.867-4.592-4.575-4.592-8.143c0-3.057,1.284-5.431,3.865-7.127
		c2.274-1.476,5.116-2.214,8.55-2.214c2.116,0,4.045,0.416,5.772,1.238c2.124,1.018,3.182,2.422,3.182,4.199
		c0,2.295-0.726,3.438-2.183,3.438c-0.548,0-1.025-0.187-1.43-0.57c-0.412-0.381-0.615-0.83-0.615-1.34
		c0-0.252,0.057-0.481,0.182-0.679c-1.034-0.344-2.113-0.507-3.224-0.507c-4.044,0-6.05,1.626-6.05,4.88
		c0,3.081,2.026,4.621,6.088,4.621c1.606,0,2.989-0.567,4.14-1.716c1.148-1.145,1.732-2.483,1.732-4.005
		c1.114-0.48,1.923-1.485,2.406-3.02C57.059,23.719,57.483,25.361,57.483,27.854"/>
	<path fill="#FFFFFF" d="M83.535,26.581c0,1.919-0.497,3.663-1.493,5.212c-0.792,1.275-2.08,2.633-3.871,4.078
		c-0.334,0.284-0.637,0.426-0.905,0.426c-0.276,0-0.883-0.311-1.821-0.933c1.91-2.209,2.858-4.767,2.858-7.685
		c0-1.609-0.524-3.034-1.59-4.283c-1.155-1.332-2.574-1.999-4.27-1.999c-1.06,0-2.166,0.381-3.318,1.15
		c0.479,1.642,0.728,3.411,0.728,5.306c0,2.767-0.469,5.321-1.409,7.68c-0.275,0.648-0.609,0.973-1.003,0.973
		c-0.181,0-0.378-0.128-0.588-0.378c-1.399-1.589-2.825-2.341-4.277-2.257l-1.277,0.093c-0.295,0.056-0.469-0.077-0.496-0.394
		c-0.031-0.302-0.078-0.479-0.137-0.503c2.001-3.195,3-6.373,3-9.544c0-2.237-0.441-4.217-1.32-5.944
		c0.061-0.167,0.38-0.542,0.956-1.126c0.577-0.572,0.862-0.894,0.862-0.957c0.31,0.174,0.762,0.446,1.368,0.809
		c0.607,0.371,1.214,0.982,1.82,1.83c2.27-1.16,4.452-1.748,6.549-1.748c2.759,0,5.092,1.074,6.999,3.236
		C82.664,21.626,83.535,23.949,83.535,26.581"/>
	<path fill="#FFFFFF" d="M105.911,30.357c0,1.946-0.999,3.466-3.002,4.532c-1.638,0.88-3.594,1.319-5.864,1.319
		c-3.25,0-5.94-0.999-8.096-2.991c-2.154-1.993-3.227-4.509-3.227-7.53c0-2.573,1.099-4.83,3.294-6.769
		c2.202-1.94,4.693-2.91,7.483-2.91c1.996,0,3.71,0.454,5.137,1.359c1.635,1.022,2.457,2.416,2.457,4.196
		c0,0.915-0.241,1.652-0.728,2.215c-0.512,0.653-1.245,0.979-2.185,0.979l-0.995-0.093c0-1.467-0.217-2.513-0.638-3.136
		c-0.549-0.82-1.534-1.231-2.958-1.231c-1.243,0-2.338,0.539-3.274,1.614c-0.938,1.078-1.408,2.207-1.408,3.396
		c0,2.454,0.665,4.23,1.998,5.306c1.244,1.042,3.197,1.563,5.871,1.563c2.509,0,4.225-1.13,5.136-3.392
		C105.577,28.958,105.911,29.48,105.911,30.357"/>
	<path fill="#FFFFFF" d="M130.831,26.116c0,3.115-0.978,5.607-2.932,7.502c-1.957,1.896-4.588,2.848-7.896,2.848
		c-7.642,0-11.452-2.926-11.452-8.786c0-1.099,0.15-2.455,0.445-4.075c0.668-3.561,1.002-5.827,1.002-6.79
		c1.88,0.17,4.671,0.483,8.373,0.936c-1.06,2.663-1.651,4.163-1.776,4.499c-0.637,1.871-0.956,3.398-0.956,4.59
		c0,1.609,0.53,2.94,1.596,4.004c1.064,1.063,2.455,1.589,4.178,1.589c1.281,0,2.434-0.362,3.478-1.102
		c1.053-0.732,1.583-1.678,1.583-2.84c0-1.496-0.224-3.265-0.646-5.299l-1.161-5.813c0.372-0.601,1.119-0.904,2.248-0.904
		c0.81,0,1.591,0.116,2.324,0.341l0.998,4.502C130.631,23.236,130.831,24.837,130.831,26.116"/>
	<path fill="#FFFFFF" d="M157.201,26.581c0,1.919-0.5,3.663-1.502,5.212c-0.785,1.275-2.079,2.633-3.864,4.078
		c-0.336,0.284-0.636,0.426-0.905,0.426c-0.278,0-0.885-0.311-1.82-0.933c1.913-2.209,2.865-4.767,2.865-7.685
		c0-1.609-0.53-3.034-1.592-4.283c-1.15-1.332-2.579-1.999-4.275-1.999c-1.065,0-2.167,0.381-3.317,1.15
		c0.481,1.642,0.726,3.411,0.726,5.306c0,2.767-0.473,5.321-1.409,7.68c-0.271,0.648-0.612,0.973-1.002,0.973
		c-0.182,0-0.376-0.128-0.591-0.378c-1.392-1.589-2.821-2.341-4.272-2.257l-1.278,0.093c-0.298,0.056-0.468-0.077-0.495-0.394
		c-0.028-0.302-0.077-0.479-0.138-0.503c1.998-3.195,3.005-6.373,3.005-9.544c0-2.237-0.446-4.217-1.32-5.944
		c0.061-0.167,0.379-0.542,0.954-1.126c0.576-0.572,0.856-0.894,0.856-0.957c0.31,0.174,0.766,0.446,1.372,0.809
		c0.604,0.371,1.212,0.982,1.817,1.83c2.274-1.16,4.452-1.748,6.548-1.748c2.755,0,5.089,1.074,7.001,3.236
		C156.324,21.626,157.201,23.949,157.201,26.581"/>
	<path fill="#FFFFFF" d="M180.811,38.121c0,2.553-1.448,4.571-4.327,6.069c-2.362,1.219-5.035,1.829-8.002,1.829
		c-2.248,0-4.242-0.459-6-1.359c-2.156-1.078-3.234-2.594-3.234-4.544c0-0.906,0.514-1.361,1.542-1.361
		c0.794,2.008,2.942,3.012,6.466,3.012c1.603,0,3.123-0.191,4.543-0.591c2.036-0.59,3.057-1.452,3.057-2.588
		c0-0.847-0.708-1.398-2.099-1.652c-0.548-0.091-1.569-0.129-3.093-0.129h-1.36c-3.248,0-4.869-0.942-4.869-2.842
		c0-0.712,0.214-1.265,0.63-1.661c0.434,0.2,1.215,0.296,2.371,0.296h0.676c-0.171,0.226-0.269,0.429-0.269,0.618
		c0,0.322,0.508,0.49,1.502,0.49c0.544,0,1.348-0.094,2.413-0.282c1.054-0.177,1.827-0.271,2.321-0.271
		c2.051,0,3.766,0.342,5.125,1.016C179.939,35.023,180.811,36.332,180.811,38.121 M177.571,21.019c0,0.68-0.212,1.29-0.639,1.828
		c-0.427,0.535-0.986,0.806-1.678,0.806c-0.788,0-1.583-0.205-2.394-0.593c-0.801-0.396-1.349-0.596-1.654-0.596
		c-1.181,0-2.282,0.383-3.317,1.141c-1.126,0.828-1.683,1.771-1.683,2.848c0,0.624,0.261,1.133,0.776,1.531
		c0.51,0.392,1.101,0.59,1.769,0.59c1.092,0,2.121-0.368,3.094-1.103c0.976-0.737,1.452-1.603,1.452-2.59
		c0-0.281-0.039-0.507-0.132-0.674c0.723,0.254,1.337,0.379,1.865,0.379c0.698,0,1.301-0.223,1.813-0.679
		c0,2.316-1.192,4.231-3.585,5.73c-2.137,1.353-4.481,2.03-7.052,2.03c-1.604,0-2.928-0.577-3.965-1.741
		c-0.932-1.065-1.404-2.385-1.404-3.936c0-2.271,0.87-4.377,2.596-6.323c2.029-2.298,4.636-3.443,7.815-3.443
		c1.733,0,3.182,0.382,4.373,1.145C176.915,18.245,177.571,19.465,177.571,21.019 M182.256,16.861c0,0.934-0.668,1.392-2.002,1.392
		c0-1.209-0.514-1.817-1.545-1.817c-0.761,0-1.258,0.503-1.493,1.525c-0.343-0.506-0.794-0.932-1.364-1.271
		c0.57-1.809,1.72-2.719,3.448-2.719c0.756,0,1.447,0.309,2.042,0.915C181.952,15.495,182.256,16.151,182.256,16.861"/>
	<path fill="#FFFFFF" d="M133.569,43.022c0,0.16-0.043,0.251-0.127,0.277l-1.277,0.644c-0.049,0.021-0.093,0.03-0.124,0.03
		c-0.129,0-0.241-0.072-0.326-0.23c-0.073-0.137-0.105-0.269-0.105-0.404c0-0.297,0.129-0.538,0.385-0.729
		c0.231-0.161,0.515-0.25,0.842-0.25c0.194,0,0.37,0.07,0.514,0.2C133.493,42.687,133.569,42.843,133.569,43.022"/>
	<path fill="#FFFFFF" d="M139.969,42.189c0,0.538-0.27,0.958-0.828,1.264c-0.458,0.241-0.999,0.362-1.636,0.362
		c-0.896,0-1.646-0.275-2.249-0.833c-0.591-0.553-0.893-1.257-0.893-2.096c0-0.714,0.302-1.335,0.914-1.882
		c0.607-0.537,1.305-0.806,2.074-0.806c0.563,0,1.039,0.132,1.434,0.38c0.457,0.28,0.682,0.667,0.682,1.17
		c0,0.252-0.067,0.448-0.206,0.607c-0.139,0.188-0.336,0.272-0.605,0.272l-0.282-0.021c0-0.41-0.056-0.694-0.171-0.874
		c-0.151-0.221-0.425-0.336-0.82-0.336c-0.345,0-0.65,0.142-0.918,0.447c-0.256,0.298-0.38,0.612-0.38,0.941
		c0,0.682,0.187,1.172,0.554,1.466c0.343,0.299,0.884,0.44,1.626,0.44c0.7,0,1.175-0.314,1.436-0.941
		C139.878,41.799,139.969,41.945,139.969,42.189"/>
	<path fill="#FFFFFF" d="M147.181,41.494c0,0.722-0.358,1.307-1.073,1.75c-0.573,0.36-1.168,0.532-1.782,0.532
		c-0.96,0-1.777-0.205-2.452-0.611c-0.849-0.518-1.27-1.271-1.27-2.265c0-0.85,0.357-1.503,1.074-1.982
		c0.631-0.403,1.418-0.608,2.37-0.608c0.59,0,1.121,0.116,1.605,0.338c0.591,0.284,0.886,0.672,0.886,1.165
		c0,0.645-0.208,0.959-0.612,0.959c-0.143,0-0.278-0.053-0.393-0.164c-0.111-0.103-0.175-0.231-0.175-0.366
		c0-0.072,0.019-0.135,0.055-0.19c-0.289-0.096-0.581-0.138-0.9-0.138c-1.114,0-1.673,0.446-1.673,1.349
		c0,0.866,0.563,1.289,1.686,1.289c0.453,0,0.833-0.161,1.155-0.479c0.316-0.315,0.476-0.691,0.476-1.107
		c0.313-0.139,0.538-0.417,0.67-0.848C147.06,40.348,147.181,40.799,147.181,41.494"/>
	<path fill="#FFFFFF" d="M157.767,41.14c0,0.377-0.156,0.877-0.468,1.508c-0.306,0.626-0.459,1.026-0.459,1.203
		c-0.486,0-0.81-0.17-0.982-0.499c0-0.06,0.132-0.407,0.389-1.046c0.136-0.306,0.184-0.597,0.184-0.855
		c0-0.421-0.173-0.821-0.521-1.193c-0.359-0.373-0.758-0.558-1.211-0.558c-0.238,0-0.482,0.064-0.722,0.201
		c0.213,0.402,0.324,0.847,0.324,1.321c0,0.845-0.324,1.661-0.979,2.447c-0.126,0.121-0.246,0.182-0.358,0.182
		c-0.137,0-0.286-0.082-0.442-0.246c0.397-0.439,0.596-1.045,0.596-1.813c0-0.498-0.155-0.966-0.48-1.391
		c-0.354-0.469-0.789-0.702-1.301-0.702c-0.291,0-0.605,0.104-0.923,0.314c0.133,0.474,0.202,0.973,0.202,1.503
		c0,0.715-0.132,1.422-0.391,2.108c-0.064,0.184-0.156,0.27-0.271,0.27c-0.055,0-0.111-0.036-0.17-0.104
		c-0.388-0.443-0.781-0.649-1.188-0.625l-0.359,0.023c-0.079,0.02-0.123-0.017-0.135-0.111c-0.014-0.088-0.024-0.133-0.036-0.139
		c0.555-0.883,0.834-1.77,0.834-2.646c0-0.627-0.125-1.178-0.372-1.651c0.021-0.048,0.11-0.156,0.271-0.316
		c0.159-0.159,0.238-0.242,0.238-0.265c0.085,0.045,0.214,0.123,0.382,0.226c0.164,0.104,0.333,0.275,0.5,0.505
		c0.633-0.323,1.241-0.481,1.823-0.481c0.578,0,1.085,0.227,1.519,0.667c0.187-0.203,0.465-0.37,0.84-0.491
		c0.34-0.117,0.675-0.176,0.988-0.176c0.778,0,1.432,0.293,1.943,0.869C157.521,39.744,157.767,40.393,157.767,41.14"/>
</g>
</svg>
