<?xml version="1.0" encoding="utf-8"?>
<!-- Generator: Adobe Illustrator 26.0.1, SVG Export Plug-In . SVG Version: 6.00 Build 0)  -->
<svg version="1.1" id="Layer_1" xmlns="http://www.w3.org/2000/svg" xmlns:xlink="http://www.w3.org/1999/xlink" x="0px" y="0px"
	 viewBox="0 0 1661.6 1062.2" style="enable-background:new 0 0 1661.6 1062.2;" xml:space="preserve">
<style type="text/css">
	.st0{fill:none;stroke:#B7B0C1;stroke-width:2;stroke-miterlimit:10;}
	.st1{fill:none;stroke:#B7B0C1;stroke-width:2;stroke-miterlimit:10;stroke-dasharray:16.116,16.116;}
	.st2{fill:none;stroke:#B7B0C1;stroke-width:2;stroke-miterlimit:10;stroke-dasharray:15.4375,15.4375;}
	.st3{fill:none;stroke:#B7B0C1;stroke-width:2;stroke-miterlimit:10;stroke-dasharray:15.6241,15.6241;}
	.st4{fill:#F7F7F7;}
	.st5{fill:#8C52DD;}
	.st6{opacity:0.12;}
	.st7{fill:none;stroke:#8C52DD;stroke-miterlimit:10;}
	.st8{fill:#FFFFFF;}
	.st9{fill:#4B37DD;}
	.st10{fill:url(#SVGID_1_);}
	.st11{fill:#E52E86;}
	.st12{fill:url(#SVGID_00000072265744770737035570000009073875985411058611_);}
	.st13{fill:url(#SVGID_00000101065905649527981640000015137431807521978521_);}
	.st14{fill:#3C3C3C;}
	.st15{fill:url(#SVGID_00000017483731946276210830000008747496803619821710_);}
	.st16{fill:url(#SVGID_00000106114659337185843000000004754736794334310282_);}
	.st17{fill:url(#SVGID_00000123427857273350815010000005704282293989052036_);}
	.st18{fill:url(#SVGID_00000137122203890136371870000005288034029625941683_);}
	.st19{fill:none;stroke:#B7B0C1;stroke-width:4;stroke-miterlimit:10;}
	.st20{fill:none;stroke:#B7B0C1;stroke-width:2;stroke-miterlimit:10;stroke-dasharray:15.9967,15.9967;}
	.st21{fill:none;stroke:#8C52DD;stroke-miterlimit:10;stroke-dasharray:8.0693,8.0693;}
	.st22{fill:none;stroke:#8C52DD;stroke-miterlimit:10;stroke-dasharray:8;}
	.st23{fill:none;stroke:#8C52DD;stroke-width:2.077;stroke-miterlimit:10;stroke-dasharray:8.0693,8.0693;}
	.st24{fill:none;stroke:#8C52DD;stroke-width:2.077;stroke-miterlimit:10;stroke-dasharray:8;}
	.st25{font-family:'Poppins-Bold';}
	.st26{font-size:20.3214px;}
	.st27{font-family:'Poppins-Regular';}
</style>
<g>
	<g>
		<line class="st0" x1="848.1" y1="1083.6" x2="853.7" y2="1078"/>
		<line class="st1" x1="865.1" y1="1066.6" x2="1269.6" y2="662"/>
		<line class="st0" x1="1275.3" y1="656.4" x2="1280.9" y2="650.8"/>
	</g>
</g>
<g>
	<g>
		<line class="st0" x1="1280.9" y1="1087.6" x2="1275.3" y2="1082.1"/>
		<line class="st2" x1="1264.4" y1="1071.2" x2="855" y2="661.8"/>
		<line class="st0" x1="849.6" y1="656.4" x2="844" y2="650.8"/>
	</g>
</g>
<g>
	<path class="st3" d="M1228.4,868.7c0,118.1-95.7,213.8-213.8,213.8c-283.7-11.3-283.6-416.5,0-427.7
		C1132.7,654.8,1228.4,750.6,1228.4,868.7L1228.4,868.7z"/>
</g>
<rect x="1174.8" y="14.9" class="st4" width="439.2" height="59.5"/>
<g>
	<g>
		<path class="st5" d="M1234.5,40.2c1.4,0.7,2.5,1.6,3.2,2.7c0.9,1.1,1.4,2.5,1.6,4.1h-6.3c-0.2-0.7-0.7-1.1-1.1-1.6
			s-1.1-0.5-1.8-0.5c-0.9,0-1.8,0.5-2.5,1.1c-0.7,0.7-0.9,1.8-0.9,3.2s0.2,2.3,0.9,3.2c0.7,0.7,1.4,1.1,2.5,1.1
			c0.7,0,1.4-0.2,1.8-0.5c0.5-0.5,0.9-0.9,1.1-1.6h6.3c-0.2,1.6-0.9,2.9-1.6,4.1c-0.9,1.1-1.8,2-3.2,2.7c-1.4,0.7-2.7,0.9-4.5,0.9
			c-2,0-3.6-0.5-5-1.1c-1.4-0.9-2.5-2-3.4-3.4c-0.7-1.6-1.1-3.2-1.1-5c0-1.8,0.5-3.6,1.1-5c0.7-1.6,1.8-2.7,3.4-3.4
			c1.4-0.9,3.2-1.1,5-1.1C1231.8,39.3,1233.4,39.8,1234.5,40.2z"/>
		<path class="st5" d="M1256.5,40.5c1.6,0.9,2.7,2,3.6,3.6c0.9,1.6,1.4,3.2,1.4,5c0,1.8-0.5,3.6-1.4,5c-0.9,1.6-2,2.7-3.6,3.6
			s-3.2,1.4-5,1.4s-3.4-0.5-5-1.4s-2.7-2-3.6-3.6c-0.9-1.6-1.4-3.2-1.4-5s0.5-3.6,1.4-5c0.9-1.6,2-2.7,3.6-3.6
			c1.6-0.9,3.2-1.4,5-1.4C1253.3,39.3,1254.9,39.5,1256.5,40.5z M1248.8,45.9c-0.7,0.7-0.9,1.8-0.9,3.2s0.2,2.3,0.9,3.2
			c0.7,0.7,1.6,1.1,2.7,1.1s2-0.5,2.7-1.1c0.7-0.7,0.9-1.8,0.9-3.2c0-1.4-0.2-2.3-0.9-3.2c-0.7-0.9-1.6-1.1-2.7-1.1
			S1249.5,45.2,1248.8,45.9z"/>
		<path class="st5" d="M1282.5,58.8h-5.9l-6.3-9.7v9.7h-6.1V39.5h6.1l6.3,9.7v-9.7h6.1v19.2H1282.5z"/>
		<g>
			<g>
				<path class="st5" d="M1299.3,40.2c1.4,0.7,2.5,1.6,3.2,2.7c0.9,1.1,1.4,2.5,1.6,4.1h-6.3c-0.2-0.7-0.7-1.1-1.1-1.6
					c-0.5-0.5-1.1-0.5-1.8-0.5c-0.9,0-1.8,0.5-2.5,1.1s-0.9,1.8-0.9,3.2s0.2,2.3,0.9,3.2c0.7,0.7,1.4,1.1,2.5,1.1
					c0.7,0,1.4-0.2,1.8-0.5c0.5-0.5,0.9-0.9,1.1-1.6h6.3c-0.2,1.6-0.9,2.9-1.6,4.1c-0.9,0.9-1.8,1.8-3.2,2.3
					c-1.4,0.7-2.7,0.9-4.5,0.9c-2,0-3.6-0.5-5-1.1c-1.4-0.9-2.5-2-3.4-3.4c-0.7-1.6-1.1-3.2-1.1-5c0-1.8,0.5-3.6,1.1-5
					c0.7-1.6,1.8-2.7,3.4-3.4c1.4-0.9,3.2-1.1,5-1.1C1296.6,39.3,1297.9,39.8,1299.3,40.2z"/>
			</g>
		</g>
		<path class="st5" d="M1312.7,39.5v10.9c0,0.9,0.2,1.6,0.7,2c0.5,0.5,0.9,0.9,1.8,0.9s1.6-0.2,2-0.7s0.7-1.1,0.7-2V39.8h6.1v10.9
			c0,1.8-0.5,3.4-1.1,4.8c-0.7,1.4-1.8,2.3-3.2,2.9c-1.4,0.7-2.7,0.9-4.5,0.9c-1.6,0-3.2-0.2-4.3-0.9c-1.4-0.7-2.3-1.6-2.9-2.9
			c-0.7-1.4-1.1-2.9-1.1-4.8V39.8h5.9C1312.7,39.8,1312.7,39.5,1312.7,39.5z"/>
		<path class="st5" d="M1345.3,58.8h-6.1l-6.3-9.7v9.7h-6.1V39.5h6.1l6.3,9.7v-9.7h6.1V58.8z"/>
		<path class="st5" d="M1364.1,41.1c1.6,1.1,2.5,2.9,2.7,5h-6.3c-0.2-0.5-0.7-0.7-0.9-0.9c-0.5-0.2-0.9-0.2-1.6-0.2
			c-1.1,0-2,0.5-2.7,1.1c-0.7,0.7-0.9,1.8-0.9,3.2c0,1.6,0.5,2.7,1.1,3.4c0.7,0.7,1.8,1.1,3.2,1.1c1.4,0,2.5-0.5,3.4-1.6h-4.8v-4.3
			h9.7V54c-0.9,1.4-2,2.7-3.4,3.6c-1.4,1.1-3.4,1.6-5.7,1.6c-2,0-3.6-0.5-5.2-1.1c-1.6-0.9-2.7-2-3.4-3.4c-0.7-1.6-1.1-3.2-1.1-5
			s0.5-3.6,1.1-5c0.7-1.6,1.8-2.7,3.4-3.4c1.4-0.9,3.2-1.1,5.2-1.1C1360.4,39.3,1362.5,40,1364.1,41.1z"/>
	</g>
</g>
<g class="st6">
	<path class="st5" d="M1148.9,293.1c4.5,2.1,8.1,5.2,11,9.1c2.8,3.9,4.7,8.4,5.6,13.6h-21.7c-1-2.2-2.4-3.9-4.2-5.1
		c-1.8-1.2-3.9-1.8-6.3-1.8c-3.5,0-6.2,1.3-8.2,3.9c-2,2.6-3,6.1-3,10.5c0,4.4,1,7.9,3,10.5c2,2.6,4.7,3.9,8.2,3.9
		c2.4,0,4.4-0.6,6.3-1.8c1.8-1.2,3.2-2.9,4.2-5.1h21.7c-0.9,5.2-2.8,9.7-5.6,13.6c-2.8,3.9-6.5,6.9-11,9c-4.5,2.1-9.6,3.2-15.3,3.2
		c-6.6,0-12.4-1.4-17.3-4.2s-8.6-6.8-11.3-11.8c-2.6-5.1-3.9-10.9-3.9-17.4c0-6.5,1.3-12.3,3.9-17.4c2.6-5.1,6.4-9,11.3-11.8
		c4.9-2.8,10.6-4.2,17.3-4.2C1139.3,289.9,1144.4,291,1148.9,293.1z"/>
	<path class="st5" d="M1221.9,293.7c5.1,2.9,9.2,6.9,12.2,12c3,5.1,4.5,10.9,4.5,17.4s-1.5,12.2-4.5,17.4c-3,5.1-7.1,9.2-12.3,12.1
		c-5.2,2.9-10.8,4.4-16.9,4.4c-6.2,0-11.9-1.5-17-4.4c-5.2-2.9-9.3-6.9-12.3-12.1c-3-5.1-4.5-10.9-4.5-17.4s1.5-12.2,4.5-17.4
		c3-5.1,7.1-9.1,12.3-12c5.2-2.9,10.8-4.3,17-4.3C1211.1,289.4,1216.7,290.9,1221.9,293.7z M1195.3,312.4c-2.2,2.6-3.3,6.2-3.3,10.7
		c0,4.5,1.1,8,3.3,10.6c2.2,2.6,5.4,3.9,9.6,3.9c4.1,0,7.2-1.3,9.5-3.9c2.2-2.6,3.3-6.2,3.3-10.6c0-4.5-1.1-8.1-3.3-10.7
		c-2.2-2.6-5.4-3.9-9.5-3.9C1200.7,308.5,1197.6,309.8,1195.3,312.4z"/>
	<path class="st5" d="M1309,356.3h-20.6l-21.8-33v33H1246v-65.7h20.6l21.8,33.6v-33.6h20.6V356.3z"/>
	<path class="st5" d="M1364.2,293.1c4.5,2.1,8.1,5.2,11,9.1c2.8,3.9,4.7,8.4,5.6,13.6h-21.7c-1-2.2-2.4-3.9-4.2-5.1
		c-1.8-1.2-3.9-1.8-6.3-1.8c-3.5,0-6.2,1.3-8.2,3.9c-2,2.6-3,6.1-3,10.5c0,4.4,1,7.9,3,10.5c2,2.6,4.7,3.9,8.2,3.9
		c2.4,0,4.4-0.6,6.3-1.8c1.8-1.2,3.2-2.9,4.2-5.1h21.7c-0.9,5.2-2.8,9.7-5.6,13.6c-2.8,3.9-6.5,6.9-11,9c-4.5,2.1-9.6,3.2-15.3,3.2
		c-6.6,0-12.4-1.4-17.3-4.2s-8.6-6.8-11.3-11.8c-2.6-5.1-3.9-10.9-3.9-17.4c0-6.5,1.3-12.3,3.9-17.4c2.6-5.1,6.4-9,11.3-11.8
		c4.9-2.8,10.6-4.2,17.3-4.2C1354.6,289.9,1359.7,291,1364.2,293.1z"/>
	<path class="st5" d="M1414.1,290.5v37c0,3,0.7,5.4,2,7.2c1.3,1.8,3.5,2.6,6.4,2.6s5.2-0.9,6.6-2.6c1.4-1.8,2.1-4.2,2.1-7.2v-37
		h20.5v37c0,6.3-1.3,11.6-3.9,16c-2.6,4.4-6.2,7.8-10.7,10c-4.5,2.2-9.6,3.3-15.1,3.3c-5.6,0-10.5-1.1-14.8-3.3s-7.7-5.5-10.1-9.9
		c-2.4-4.4-3.6-9.7-3.6-16.1v-37H1414.1z"/>
	<path class="st5" d="M1530.9,356.3h-20.6l-21.8-33v33h-20.6v-65.7h20.6l21.8,33.6v-33.6h20.6V356.3z"/>
	<path class="st5" d="M1592.5,296.1c5.4,4.1,8.6,9.8,9.6,16.9h-21.7c-0.8-1.3-2-2.3-3.4-3c-1.5-0.7-3.3-1.1-5.4-1.1
		c-4,0-7,1.3-9.2,3.9c-2.2,2.6-3.2,6.1-3.2,10.5c0,5.1,1.2,9,3.6,11.5c2.4,2.5,6.1,3.8,11.1,3.8c4.8,0,8.6-1.9,11.5-5.8H1569v-14.6
		h33.5v20.6c-2.8,4.9-6.8,9.1-11.8,12.6c-5,3.5-11.4,5.2-19,5.2c-6.8,0-12.7-1.4-17.8-4.2c-5-2.8-8.9-6.8-11.6-11.8
		c-2.7-5.1-4-10.9-4-17.4c0-6.5,1.3-12.3,4-17.4c2.7-5.1,6.5-9,11.6-11.8c5-2.8,10.9-4.2,17.6-4.2
		C1580.1,289.9,1587.1,292,1592.5,296.1z"/>
</g>
<g>
	<path class="st5" d="M1148.9,98.9c4.5,2.1,8.1,5.2,11,9.1c2.8,3.9,4.7,8.4,5.6,13.6h-21.7c-1-2.2-2.4-3.9-4.2-5.1
		c-1.8-1.2-3.9-1.8-6.3-1.8c-3.5,0-6.2,1.3-8.2,3.9c-2,2.6-3,6.1-3,10.5c0,4.4,1,7.9,3,10.5c2,2.6,4.7,3.9,8.2,3.9
		c2.4,0,4.4-0.6,6.3-1.8c1.8-1.2,3.2-2.9,4.2-5.1h21.7c-0.9,5.2-2.8,9.7-5.6,13.6c-2.8,3.9-6.5,6.9-11,9c-4.5,2.1-9.6,3.2-15.3,3.2
		c-6.6,0-12.4-1.4-17.3-4.2c-4.9-2.8-8.6-6.8-11.3-11.8c-2.6-5.1-3.9-10.9-3.9-17.4c0-6.5,1.3-12.3,3.9-17.4
		c2.6-5.1,6.4-9,11.3-11.8c4.9-2.8,10.6-4.2,17.3-4.2C1139.3,95.7,1144.4,96.8,1148.9,98.9z"/>
	<path class="st5" d="M1221.9,99.6c5.1,2.9,9.2,6.9,12.2,12c3,5.1,4.5,10.9,4.5,17.4s-1.5,12.2-4.5,17.4c-3,5.1-7.1,9.2-12.3,12.1
		c-5.2,2.9-10.8,4.4-16.9,4.4c-6.2,0-11.9-1.5-17-4.4c-5.2-2.9-9.3-6.9-12.3-12.1c-3-5.1-4.5-10.9-4.5-17.4s1.5-12.2,4.5-17.4
		c3-5.1,7.1-9.1,12.3-12c5.2-2.9,10.8-4.3,17-4.3C1211.1,95.3,1216.7,96.7,1221.9,99.6z M1195.3,118.2c-2.2,2.6-3.3,6.2-3.3,10.7
		c0,4.5,1.1,8,3.3,10.6c2.2,2.6,5.4,3.9,9.6,3.9c4.1,0,7.2-1.3,9.5-3.9c2.2-2.6,3.3-6.2,3.3-10.6c0-4.5-1.1-8.1-3.3-10.7
		c-2.2-2.6-5.4-3.9-9.5-3.9C1200.7,114.3,1197.6,115.6,1195.3,118.2z"/>
	<path class="st5" d="M1309,162.1h-20.6l-21.8-33v33H1246V96.4h20.6l21.8,33.6V96.4h20.6V162.1z"/>
	<path class="st5" d="M1364.2,98.9c4.5,2.1,8.1,5.2,11,9.1c2.8,3.9,4.7,8.4,5.6,13.6h-21.7c-1-2.2-2.4-3.9-4.2-5.1
		c-1.8-1.2-3.9-1.8-6.3-1.8c-3.5,0-6.2,1.3-8.2,3.9c-2,2.6-3,6.1-3,10.5c0,4.4,1,7.9,3,10.5c2,2.6,4.7,3.9,8.2,3.9
		c2.4,0,4.4-0.6,6.3-1.8s3.2-2.9,4.2-5.1h21.7c-0.9,5.2-2.8,9.7-5.6,13.6c-2.8,3.9-6.5,6.9-11,9c-4.5,2.1-9.6,3.2-15.3,3.2
		c-6.6,0-12.4-1.4-17.3-4.2c-4.9-2.8-8.6-6.8-11.3-11.8c-2.6-5.1-3.9-10.9-3.9-17.4c0-6.5,1.3-12.3,3.9-17.4
		c2.6-5.1,6.4-9,11.3-11.8c4.9-2.8,10.6-4.2,17.3-4.2C1354.6,95.7,1359.7,96.8,1364.2,98.9z"/>
	<path class="st5" d="M1414.1,96.4v37c0,3,0.7,5.4,2,7.2c1.3,1.8,3.5,2.6,6.4,2.6s5.2-0.9,6.6-2.6c1.4-1.8,2.1-4.2,2.1-7.2v-37h20.5
		v37c0,6.3-1.3,11.6-3.9,16c-2.6,4.4-6.2,7.8-10.7,10c-4.5,2.2-9.6,3.3-15.1,3.3c-5.6,0-10.5-1.1-14.8-3.3
		c-4.3-2.2-7.7-5.5-10.1-9.9c-2.4-4.4-3.6-9.7-3.6-16.1v-37H1414.1z"/>
	<path class="st5" d="M1530.9,162.1h-20.6l-21.8-33v33h-20.6V96.4h20.6l21.8,33.6V96.4h20.6V162.1z"/>
	<path class="st5" d="M1592.5,101.9c5.4,4.1,8.6,9.8,9.6,16.9h-21.7c-0.8-1.3-2-2.3-3.4-3s-3.3-1.1-5.4-1.1c-4,0-7,1.3-9.2,3.9
		c-2.2,2.6-3.2,6.1-3.2,10.5c0,5.1,1.2,9,3.6,11.5c2.4,2.5,6.1,3.8,11.1,3.8c4.8,0,8.6-1.9,11.5-5.8H1569v-14.6h33.5v20.6
		c-2.8,4.9-6.8,9.1-11.8,12.6c-5,3.5-11.4,5.2-19,5.2c-6.8,0-12.7-1.4-17.8-4.2c-5-2.8-8.9-6.8-11.6-11.8c-2.7-5.1-4-10.9-4-17.4
		c0-6.5,1.3-12.3,4-17.4c2.7-5.1,6.5-9,11.6-11.8c5-2.8,10.9-4.2,17.6-4.2C1580.1,95.7,1587.1,97.8,1592.5,101.9z"/>
</g>
<g>
	<path class="st7" d="M1148.9,196c4.5,2.1,8.1,5.2,11,9.1c2.8,3.9,4.7,8.4,5.6,13.6h-21.7c-1-2.2-2.4-3.9-4.2-5.1
		c-1.8-1.2-3.9-1.8-6.3-1.8c-3.5,0-6.2,1.3-8.2,3.9c-2,2.6-3,6.1-3,10.5c0,4.4,1,7.9,3,10.5c2,2.6,4.7,3.9,8.2,3.9
		c2.4,0,4.4-0.6,6.3-1.8c1.8-1.2,3.2-2.9,4.2-5.1h21.7c-0.9,5.2-2.8,9.7-5.6,13.6c-2.8,3.9-6.5,6.9-11,9c-4.5,2.1-9.6,3.2-15.3,3.2
		c-6.6,0-12.4-1.4-17.3-4.2s-8.6-6.8-11.3-11.8c-2.6-5.1-3.9-10.9-3.9-17.4c0-6.5,1.3-12.3,3.9-17.4c2.6-5.1,6.4-9,11.3-11.8
		c4.9-2.8,10.6-4.2,17.3-4.2C1139.3,192.8,1144.4,193.9,1148.9,196z"/>
	<path class="st7" d="M1221.9,196.7c5.1,2.9,9.2,6.9,12.2,12c3,5.1,4.5,10.9,4.5,17.4s-1.5,12.2-4.5,17.4c-3,5.1-7.1,9.2-12.3,12.1
		c-5.2,2.9-10.8,4.4-16.9,4.4c-6.2,0-11.9-1.5-17-4.4c-5.2-2.9-9.3-6.9-12.3-12.1c-3-5.1-4.5-10.9-4.5-17.4s1.5-12.2,4.5-17.4
		c3-5.1,7.1-9.1,12.3-12c5.2-2.9,10.8-4.3,17-4.3C1211.1,192.3,1216.7,193.8,1221.9,196.7z M1195.3,215.3c-2.2,2.6-3.3,6.2-3.3,10.7
		c0,4.5,1.1,8,3.3,10.6c2.2,2.6,5.4,3.9,9.6,3.9c4.1,0,7.2-1.3,9.5-3.9c2.2-2.6,3.3-6.2,3.3-10.6c0-4.5-1.1-8.1-3.3-10.7
		c-2.2-2.6-5.4-3.9-9.5-3.9C1200.7,211.4,1197.6,212.7,1195.3,215.3z"/>
	<path class="st7" d="M1309,259.2h-20.6l-21.8-33v33H1246v-65.7h20.6l21.8,33.6v-33.6h20.6V259.2z"/>
	<path class="st7" d="M1364.2,196c4.5,2.1,8.1,5.2,11,9.1c2.8,3.9,4.7,8.4,5.6,13.6h-21.7c-1-2.2-2.4-3.9-4.2-5.1
		c-1.8-1.2-3.9-1.8-6.3-1.8c-3.5,0-6.2,1.3-8.2,3.9c-2,2.6-3,6.1-3,10.5c0,4.4,1,7.9,3,10.5c2,2.6,4.7,3.9,8.2,3.9
		c2.4,0,4.4-0.6,6.3-1.8c1.8-1.2,3.2-2.9,4.2-5.1h21.7c-0.9,5.2-2.8,9.7-5.6,13.6c-2.8,3.9-6.5,6.9-11,9c-4.5,2.1-9.6,3.2-15.3,3.2
		c-6.6,0-12.4-1.4-17.3-4.2s-8.6-6.8-11.3-11.8c-2.6-5.1-3.9-10.9-3.9-17.4c0-6.5,1.3-12.3,3.9-17.4c2.6-5.1,6.4-9,11.3-11.8
		c4.9-2.8,10.6-4.2,17.3-4.2C1354.6,192.8,1359.7,193.9,1364.2,196z"/>
	<path class="st7" d="M1414.1,193.5v37c0,3,0.7,5.4,2,7.2c1.3,1.8,3.5,2.6,6.4,2.6s5.2-0.9,6.6-2.6c1.4-1.8,2.1-4.2,2.1-7.2v-37
		h20.5v37c0,6.3-1.3,11.6-3.9,16c-2.6,4.4-6.2,7.8-10.7,10c-4.5,2.2-9.6,3.3-15.1,3.3c-5.6,0-10.5-1.1-14.8-3.3
		c-4.3-2.2-7.7-5.5-10.1-9.9c-2.4-4.4-3.6-9.7-3.6-16.1v-37H1414.1z"/>
	<path class="st7" d="M1530.9,259.2h-20.6l-21.8-33v33h-20.6v-65.7h20.6l21.8,33.6v-33.6h20.6V259.2z"/>
	<path class="st7" d="M1592.5,199c5.4,4.1,8.6,9.8,9.6,16.9h-21.7c-0.8-1.3-2-2.3-3.4-3s-3.3-1.1-5.4-1.1c-4,0-7,1.3-9.2,3.9
		c-2.2,2.6-3.2,6.1-3.2,10.5c0,5.1,1.2,9,3.6,11.5c2.4,2.5,6.1,3.8,11.1,3.8c4.8,0,8.6-1.9,11.5-5.8H1569v-14.6h33.5v20.6
		c-2.8,4.9-6.8,9.1-11.8,12.6c-5,3.5-11.4,5.2-19,5.2c-6.8,0-12.7-1.4-17.8-4.2c-5-2.8-8.9-6.8-11.6-11.8c-2.7-5.1-4-10.9-4-17.4
		c0-6.5,1.3-12.3,4-17.4c2.7-5.1,6.5-9,11.6-11.8c5-2.8,10.9-4.2,17.6-4.2C1580.1,192.8,1587.1,194.9,1592.5,199z"/>
</g>
<g>
	<path class="st8" d="M1422.2,47.7c0-1.1-0.5-1.8-1.1-2.3c-0.7-0.5-1.4-0.9-2.5-0.9s-2,0.5-2.7,1.4c-0.7,0.9-0.9,2.5-0.9,4.3
		c0,0.7,0,1.4,0.2,2c0.2,0.7,0.2,1.1,0.5,1.8c0.2,0.7,0.7,0.9,1.1,1.1c0.5,0.2,1.1,0.5,2,0.5c0.5,0,0.9,0,1.4-0.2
		c0.5-0.2,0.7-0.5,0.9-0.7c0.2-0.2,0.5-0.7,0.7-1.1c0.2-0.5,0.2-0.9,0.2-1.4h6.1c-0.2,1.4-0.5,2.5-0.9,3.4c-0.5,0.9-1.1,1.8-2,2.5
		s-1.8,1.1-2.9,1.6s-2.3,0.5-3.6,0.5c-1.6,0-3.2-0.2-4.3-0.7c-1.4-0.5-2.3-1.1-3.2-2c-0.9-0.9-1.6-2-2-3.2c-0.5-1.1-0.7-2.7-0.7-4.3
		c0-1.6,0.2-2.9,0.7-4.3c0.5-1.4,1.1-2.3,2-3.2c0.9-0.9,1.8-1.6,3.2-2c1.1-0.5,2.5-0.7,3.8-0.7c1.6,0,2.7,0.2,4.1,0.5
		c1.4,0.2,2.3,0.9,2.9,1.6c0.7,0.7,1.6,1.6,2,2.5c0.5,0.9,0.7,2,0.9,3.4C1428.1,47.7,1422.2,47.7,1422.2,47.7z"/>
	<path class="st8" d="M1440.6,39.8c1.1,0,2.3,0.2,3.2,0.5c0.9,0.2,1.8,0.7,2.5,1.1s1.4,0.9,2,1.6s1.1,1.4,1.4,2
		c0.2,0.7,0.7,1.6,0.9,2.5s0.2,1.6,0.2,2.5c0,1.6-0.2,3.2-0.7,4.5c-0.5,1.4-1.4,2.5-2.3,3.2c-0.9,0.7-2,1.6-3.2,2
		c-1.1,0.5-2.5,0.7-4.1,0.7c-1.6,0-2.9-0.2-4.3-0.7s-2.3-1.1-3.2-2c-0.9-0.9-1.6-2-2-3.4c-0.5-1.4-0.7-2.7-0.7-4.5
		c0-1.6,0.2-2.9,0.7-4.1c0.5-1.1,1.1-2.3,2-3.2c0.9-0.9,2-1.6,3.2-2C1437.4,40,1439,39.8,1440.6,39.8z M1440.6,44.5
		c-0.7,0-1.4,0.2-1.8,0.5c-0.5,0.2-0.9,0.7-1.1,1.4c-0.2,0.7-0.5,1.1-0.7,1.8s-0.2,1.4-0.2,1.8c0,0.5,0,0.9,0,1.4
		c0,0.5,0.2,0.9,0.2,1.4s0.2,0.9,0.5,1.1c0.2,0.2,0.5,0.7,0.7,0.9s0.7,0.5,0.9,0.7c0.2,0.2,0.9,0.2,1.4,0.2c0.7,0,1.4-0.2,1.8-0.5
		c0.5-0.2,0.9-0.7,1.1-1.1s0.5-1.1,0.7-1.8s0.2-1.4,0.2-2.3c0-0.7,0-1.4-0.2-2c-0.2-0.7-0.5-1.1-0.7-1.8s-0.7-0.9-1.1-1.1
		C1441.7,44.8,1441.3,44.5,1440.6,44.5z"/>
	<path class="st8" d="M1466.8,51.1l-0.2-4.5v-6.1h6.1v19.5h-6.1l-7-10.6l0.2,4.5v6.1h-6.1V40.5h6.1L1466.8,51.1z"/>
	<path class="st8" d="M1488.6,47.7c0-1.1-0.5-1.8-1.1-2.3c-0.7-0.5-1.4-0.9-2.5-0.9s-2,0.5-2.7,1.4s-0.9,2.5-0.9,4.3
		c0,0.7,0,1.4,0.2,2s0.2,1.1,0.5,1.8c0.2,0.7,0.7,0.9,1.1,1.1c0.5,0.2,1.1,0.5,2,0.5c0.5,0,0.9,0,1.4-0.2c0.5-0.2,0.7-0.5,0.9-0.7
		c0.2-0.2,0.5-0.7,0.7-1.1c0.2-0.5,0.2-0.9,0.2-1.4h6.1c-0.2,1.4-0.5,2.5-0.9,3.4c-0.5,0.9-1.1,1.8-2,2.5s-1.8,1.1-2.9,1.6
		s-2.3,0.5-3.6,0.5c-1.6,0-3.2-0.2-4.3-0.7c-1.1-0.5-2.3-1.1-3.2-2c-0.9-0.9-1.6-2-2-3.2c-0.5-1.1-0.7-2.7-0.7-4.3
		c0-1.6,0.2-2.9,0.7-4.3c0.5-1.4,1.1-2.3,2-3.2c0.9-0.9,1.8-1.6,3.2-2c1.4-0.5,2.5-0.7,3.8-0.7c1.6,0,2.7,0.2,4.1,0.5
		c1.4,0.2,2.3,0.9,2.9,1.6c0.7,0.7,1.6,1.6,2,2.5c0.5,0.9,0.7,2,0.9,3.4C1494.5,47.7,1488.6,47.7,1488.6,47.7z"/>
	<path class="st8" d="M1497.6,40.2h6.3V52c0,0.5,0,0.9,0,1.4s0.2,0.9,0.5,1.1c0.2,0.2,0.5,0.7,0.9,0.7c0.5,0,0.9,0.2,1.6,0.2
		s1.1,0,1.4-0.2s0.7-0.5,0.9-0.7c0.2-0.2,0.5-0.7,0.5-1.1s0.2-0.9,0.2-1.4V40.2h6.3v11.1c0,1.6-0.2,2.9-0.5,4.1
		c-0.2,1.1-0.9,2-1.8,2.7s-1.8,1.4-2.9,1.6s-2.5,0.5-4.3,0.5c-1.6,0-2.9-0.2-4.1-0.5c-1.1-0.2-2.3-0.9-2.9-1.6
		c-0.7-0.7-1.4-1.6-1.8-2.7c-0.5-1.1-0.7-2.5-0.7-4.3V40.2H1497.6z"/>
	<path class="st8" d="M1533.2,51.1l-0.2-4.5v-6.1h6.1v19.5h-6.1l-7-10.6l0.2,4.5v6.1h-6.1V40.5h6.1L1533.2,51.1z"/>
	<path class="st8" d="M1561.7,59.9h-4.1l-0.2-1.8c-0.2,0.2-0.7,0.7-0.9,0.9c-0.2,0.2-0.7,0.5-1.4,0.7c-0.7,0.2-1.1,0.5-1.6,0.5
		c-0.5,0-1.4,0.2-2,0.2c-0.9,0-1.6,0-2.5-0.2c-0.9-0.2-1.6-0.5-2.3-0.9c-0.7-0.5-1.4-0.9-2-1.4s-1.1-1.1-1.6-2
		c-0.5-0.9-0.7-1.6-0.9-2.5c-0.2-0.9-0.5-2-0.5-3.2c0-1.6,0.2-2.9,0.7-4.3c0.5-1.4,1.1-2.5,2-3.4c0.9-0.9,2-1.6,3.2-2.3
		s2.7-0.7,4.3-0.7c1.1,0,2.3,0.2,3.4,0.5c1.1,0.2,2,0.7,2.7,1.4c0.7,0.7,1.6,1.4,2,2.3c0.5,0.9,0.9,2,1.1,3.2h-6.1
		c-0.2-0.9-0.7-1.4-1.1-1.8c-0.5-0.5-1.4-0.7-2-0.7c-0.7,0-1.1,0.2-1.6,0.5c-0.5,0.2-0.9,0.7-1.1,1.1c-0.2,0.5-0.5,1.1-0.7,1.8
		s-0.2,1.6-0.2,2.3s0,1.4,0.2,2c0.2,0.7,0.5,1.1,0.7,1.6c0.2,0.5,0.7,0.9,1.4,1.1s1.1,0.5,2,0.5c0.2,0,0.7,0,1.1-0.2
		c0.5-0.2,0.7-0.2,0.9-0.5c0.2-0.2,0.7-0.5,0.9-0.7c0.2-0.2,0.5-0.7,0.5-0.9h-2.7v-4.3h8.8v11.3H1561.7z"/>
</g>
<path class="st9" d="M1031.3,69.2C1031.2,69.1,1031.2,69.1,1031.3,69.2L1031.3,69.2C1031.2,69.1,1031.2,69.1,1031.3,69.2z"/>
<g>
	<g>
		
			<image style="overflow:visible;opacity:0.4;" width="267" height="267" xlink:href="5E1343B2.png"  transform="matrix(1 0 0 1 1360.7872 581)">
		</image>
		<g>
			<g>
				<path class="st8" d="M1571.3,827.8c-53.5,2.5-106.9,2.4-160.4-0.4c-19.3-1-34.8-16.5-35.7-35.9c-2.7-53.2-2.5-106.5,0.4-159.7
					c1.1-19.3,16.5-34.7,35.7-35.7c53.2-2.9,106.5-3,159.7-0.4c19.4,1,34.9,16.4,35.9,35.8c2.7,53.5,2.9,106.9,0.4,160.4
					C1606.3,811.3,1590.7,826.9,1571.3,827.8z"/>
			</g>
		</g>
	</g>
	<g>
		<g>
			<linearGradient id="SVGID_1_" gradientUnits="userSpaceOnUse" x1="1453.75" y1="750.4905" x2="1560.4734" y2="657.0438">
				<stop  offset="0" style="stop-color:#C34CE0"/>
				<stop  offset="0.7408" style="stop-color:#FF43B2"/>
				<stop  offset="1" style="stop-color:#FF6684"/>
			</linearGradient>
			<path class="st10" d="M1520.7,779.3c-35.5,0-64.7-27.5-67.2-62.3c-0.2-1.7-0.3-3.3-0.3-5.1s0.1-3.4,0.3-5.1
				c2.5-34.9,31.6-62.3,67.2-62.3c12.8,0,24.7,3.5,34.8,9.8c0.2,0,0.3,0,0.4,0.1c0-0.1-0.1-0.2-0.2-0.3
				c-14.8-14.7-35.2-23.9-57.8-23.9c-45.1,0-81.7,36.6-81.7,81.7c0,45.1,36.6,81.7,81.7,81.7c22.5,0,42.9-9.2,57.8-23.9
				c0.1-0.1,0.2-0.2,0.2-0.3c-0.1,0.1-0.2,0.1-0.4,0.1C1545.3,775.8,1533.5,779.3,1520.7,779.3z"/>
		</g>
	</g>
	<path class="st11" d="M1555.8,769.4c0,0.1-0.1,0.2-0.2,0.3l-0.2-0.2C1555.6,769.5,1555.7,769.5,1555.8,769.4z"/>
	
		<linearGradient id="SVGID_00000001643282120379340350000001653969644200387205_" gradientUnits="userSpaceOnUse" x1="1530.58" y1="690.5032" x2="1477.6852" y2="669.1874">
		<stop  offset="0" style="stop-color:#FF9A60"/>
		<stop  offset="1" style="stop-color:#FF6684"/>
	</linearGradient>
	<path style="fill:url(#SVGID_00000001643282120379340350000001653969644200387205_);" d="M1564,663.8l-26.9,26.9
		c-2-3.8-4.6-7.3-7.7-10.4c-8.1-8.1-19.2-13.1-31.5-13.1c-22.8,0-41.7,17.3-44.3,39.5c2.5-34.9,31.6-62.3,67.2-62.3
		c12.8,0,24.7,3.5,34.8,9.8c0.3,0,0.5,0.1,0.6,0.4C1559,657.5,1561.6,660.6,1564,663.8z"/>
	
		<linearGradient id="SVGID_00000181049839338748843970000013850106950179456904_" gradientUnits="userSpaceOnUse" x1="1466.2068" y1="757.9999" x2="1541.9962" y2="730.171">
		<stop  offset="0" style="stop-color:#7644ED"/>
		<stop  offset="1" style="stop-color:#ED4497"/>
	</linearGradient>
	<path style="fill:url(#SVGID_00000181049839338748843970000013850106950179456904_);" d="M1564,759.9c-2.4,3.2-5,6.2-7.8,9.1
		c0,0.1-0.1,0.1-0.1,0.1c-0.1,0.1-0.2,0.3-0.3,0.3c-0.1,0.1-0.2,0.1-0.4,0.1c-10.1,6.3-22,9.8-34.8,9.8c-35.5,0-64.7-27.5-67.2-62.3
		c2.6,22.2,21.5,39.5,44.3,39.5c12.3,0,23.5-5,31.5-13.1c3.1-3.1,5.7-6.5,7.7-10.3L1564,759.9z"/>
</g>
<g>
	<g>
		
			<image style="overflow:visible;opacity:0.4;" width="199" height="200" xlink:href="5E1343B6.png"  transform="matrix(1 0 0 1 86.6002 131.8129)">
		</image>
		<g>
			<g>
				<path class="st8" d="M243.4,315.8c-39.9,1.9-79.7,1.8-119.6-0.3c-14.4-0.7-25.9-12.3-26.7-26.8c-2-39.7-1.9-79.4,0.3-119.1
					c0.8-14.4,12.3-25.9,26.6-26.6c39.7-2.2,79.4-2.3,119.1-0.3c14.4,0.7,26,12.2,26.8,26.7c2,39.9,2.1,79.7,0.3,119.6
					C269.5,303.5,257.9,315.1,243.4,315.8z"/>
			</g>
		</g>
	</g>
	<path class="st11" d="M231.9,272.2c0,0.1-0.1,0.1-0.1,0.2l-0.1-0.1C231.8,272.3,231.8,272.3,231.9,272.2z"/>
</g>
<g>
	<g>
		
			<image style="overflow:visible;opacity:0.4;" width="200" height="200" xlink:href="5E1343B1.png"  transform="matrix(1 0 0 1 338.6002 131.8129)">
		</image>
		<g>
			<g>
				<path class="st14" d="M495.6,315.8c-39.9,1.9-79.7,1.8-119.6-0.3c-14.4-0.7-25.9-12.3-26.7-26.8c-2-39.7-1.9-79.4,0.3-119.1
					c0.8-14.4,12.3-25.9,26.6-26.6c39.7-2.2,79.4-2.3,119.1-0.3c14.4,0.7,26,12.2,26.8,26.7c2,39.9,2.1,79.7,0.3,119.6
					C521.7,303.5,510.1,315.1,495.6,315.8z"/>
			</g>
		</g>
	</g>
	<path class="st14" d="M484.1,272.2c0,0.1-0.1,0.1-0.1,0.2l-0.1-0.1C483.9,272.3,484,272.3,484.1,272.2z"/>
</g>
<g>
	<g>
		
			<image style="overflow:visible;opacity:0.4;" width="200" height="200" xlink:href="5E1343B3.png"  transform="matrix(1 0 0 1 584.6002 131.8129)">
		</image>
		<g>
			<g>
				<path class="st5" d="M741.8,315.8c-39.9,1.9-79.7,1.8-119.6-0.3c-14.4-0.7-25.9-12.3-26.7-26.8c-2-39.7-1.9-79.4,0.3-119.1
					c0.8-14.4,12.3-25.9,26.6-26.6c39.7-2.2,79.4-2.3,119.1-0.3c14.4,0.7,26,12.2,26.8,26.7c2,39.9,2.1,79.7,0.3,119.6
					C767.9,303.5,756.2,315.1,741.8,315.8z"/>
			</g>
		</g>
	</g>
	<path class="st5" d="M730.2,272.2c0,0.1-0.1,0.1-0.1,0.2l-0.1-0.1C730.1,272.3,730.2,272.3,730.2,272.2z"/>
</g>
<g>
	<g>
		
			<image style="overflow:visible;opacity:0.4;" width="267" height="266" xlink:href="5E1343B0.png"  transform="matrix(1 0 0 1 1360.7872 857)">
		</image>
		<g>
			<g>
				
					<linearGradient id="SVGID_00000137835258294876835900000001443874212009469836_" gradientUnits="userSpaceOnUse" x1="1400.0376" y1="1075.4741" x2="1598.4205" y2="883.9848">
					<stop  offset="0" style="stop-color:#7644ED"/>
					<stop  offset="1" style="stop-color:#A55CF2"/>
				</linearGradient>
				<path style="fill:url(#SVGID_00000137835258294876835900000001443874212009469836_);" d="M1571.3,1103.2
					c-53.5,2.5-106.9,2.4-160.4-0.4c-19.3-1-34.8-16.5-35.7-35.9c-2.7-53.2-2.5-106.5,0.4-159.7c1.1-19.3,16.5-34.7,35.7-35.7
					c53.2-2.9,106.5-3,159.7-0.4c19.4,1,34.9,16.4,35.9,35.8c2.7,53.5,2.9,106.9,0.4,160.4
					C1606.3,1086.7,1590.7,1102.3,1571.3,1103.2z"/>
			</g>
		</g>
	</g>
	<g>
		
			<linearGradient id="SVGID_00000072968767917707224500000001063016941342204328_" gradientUnits="userSpaceOnUse" x1="1448.1167" y1="1036.1683" x2="1550.9252" y2="935.0619">
			<stop  offset="0" style="stop-color:#E0BDFF"/>
			<stop  offset="1" style="stop-color:#FFFFFF"/>
		</linearGradient>
		<path style="fill:url(#SVGID_00000072968767917707224500000001063016941342204328_);" d="M1520.7,1054.7
			c-35.5,0-64.7-27.5-67.2-62.3c-0.2-1.7-0.3-3.3-0.3-5.1s0.1-3.4,0.3-5.1c2.5-34.9,31.6-62.3,67.2-62.3c12.8,0,24.7,3.5,34.8,9.8
			c0.2,0,0.3,0,0.4,0.1c0-0.1-0.1-0.2-0.2-0.3c-14.8-14.7-35.2-23.9-57.8-23.9c-45.1,0-81.7,36.6-81.7,81.7
			c0,45.1,36.6,81.7,81.7,81.7c22.5,0,42.9-9.2,57.8-23.9c0.1-0.1,0.2-0.2,0.2-0.3c-0.1,0.1-0.2,0.1-0.4,0.1
			C1545.3,1051.2,1533.5,1054.7,1520.7,1054.7z"/>
	</g>
	<path class="st11" d="M1555.8,1044.8c0,0.1-0.1,0.2-0.2,0.3l-0.2-0.2C1555.6,1044.8,1555.7,1044.8,1555.8,1044.8z"/>
	
		<linearGradient id="SVGID_00000085245600580952992380000002159030908336582589_" gradientUnits="userSpaceOnUse" x1="1456.9392" y1="936.9466" x2="1531.152" y2="965.5424">
		<stop  offset="0" style="stop-color:#D5BEFC"/>
		<stop  offset="1" style="stop-color:#FFFFFF"/>
	</linearGradient>
	<path style="fill:url(#SVGID_00000085245600580952992380000002159030908336582589_);" d="M1564,939.2l-26.9,26.9
		c-2-3.8-4.6-7.3-7.7-10.4c-8.1-8.1-19.2-13.1-31.5-13.1c-22.8,0-41.7,17.3-44.3,39.5c2.5-34.9,31.6-62.3,67.2-62.3
		c12.8,0,24.7,3.5,34.8,9.8c0.3,0,0.5,0.1,0.6,0.4C1559,932.9,1561.6,935.9,1564,939.2z"/>
	
		<linearGradient id="SVGID_00000146489441009852778620000017160911639126719409_" gradientUnits="userSpaceOnUse" x1="1466.2068" y1="1033.3722" x2="1541.9962" y2="1005.5432">
		<stop  offset="0" style="stop-color:#E6DAF7"/>
		<stop  offset="1" style="stop-color:#FFFFFF"/>
	</linearGradient>
	<path style="fill:url(#SVGID_00000146489441009852778620000017160911639126719409_);" d="M1564,1035.3c-2.4,3.2-5,6.2-7.8,9.1
		c0,0.1-0.1,0.1-0.1,0.1c-0.1,0.1-0.2,0.3-0.3,0.3c-0.1,0.1-0.2,0.1-0.4,0.1c-10.1,6.3-22,9.8-34.8,9.8c-35.5,0-64.7-27.5-67.2-62.3
		c2.6,22.2,21.5,39.5,44.3,39.5c12.3,0,23.5-5,31.5-13.1c3.1-3.1,5.7-6.5,7.7-10.3L1564,1035.3z"/>
</g>
<g>
	<path class="st19" d="M1074.9,1046c-93.2,0-169.6-72-176.1-163.5c-0.5-4.4-0.7-8.8-0.7-13.4s0.2-9,0.7-13.4
		c6.6-91.5,83-163.5,176.1-163.5c33.6,0,64.7,9.2,91.2,25.8c0.5,0,0.7,0,1,0.2c0-0.2-0.2-0.5-0.5-0.7
		c-38.9-38.7-92.4-62.8-151.5-62.8c-118.2,0-214.3,96.1-214.3,214.3c0,118.2,96.1,214.3,214.3,214.3c59.1,0,112.6-24.1,151.5-62.8
		c0.2-0.2,0.5-0.5,0.5-0.7c-0.2,0.2-0.5,0.2-1,0.2C1139.6,1036.8,1108.5,1046,1074.9,1046z"/>
</g>
<path class="st11" d="M1167.1,1020c0,0.2-0.2,0.5-0.5,0.7l-0.5-0.5C1166.6,1020.2,1166.8,1020.2,1167.1,1020z"/>
<path class="st19" d="M1188.5,743.2l-70.5,70.5c-5.4-10-12.2-19.2-20.2-27.2c-21.2-21.2-50.4-34.3-82.7-34.3
	c-59.8,0-109.5,45.5-116.3,103.6c6.6-91.5,83-163.5,176.1-163.5c33.6,0,64.7,9.2,91.2,25.8c0.7,0,1.2,0.2,1.7,1
	C1175.4,726.6,1182.2,734.6,1188.5,743.2z"/>
<path class="st19" d="M1188.5,995.2c-6.3,8.3-13.1,16.3-20.4,23.8c0,0.2-0.2,0.2-0.2,0.2c-0.2,0.2-0.5,0.7-0.7,0.7
	c-0.2,0.2-0.5,0.2-1,0.2c-26.5,16.5-57.7,25.8-91.2,25.8c-93.2,0-169.6-72-176.1-163.5c6.8,58.1,56.4,103.6,116.3,103.6
	c32.4,0,61.5-13.1,82.7-34.3c8-8,14.8-17,20.2-27L1188.5,995.2z"/>
<g>
	<path class="st20" d="M1132.3,869.2c0,64.7-52.4,117.1-117.1,117.1c-155.3-6.2-155.3-228.1,0-234.2
		C1079.8,752,1132.3,804.5,1132.3,869.2L1132.3,869.2z"/>
</g>
<g>
	<path class="st21" d="M1167.1,323.3c0,18.4-15,33.4-33.4,33.4c-44.3-1.8-44.3-65,0-66.8C1152.2,289.9,1167.1,304.8,1167.1,323.3
		L1167.1,323.3z"/>
</g>
<g>
	<path class="st21" d="M1238.3,323.3c0,18.4-15,33.4-33.4,33.4c-44.3-1.8-44.3-65,0-66.8C1223.3,289.9,1238.3,304.8,1238.3,323.3
		L1238.3,323.3z"/>
</g>
<g>
	<path class="st21" d="M1383.3,323.3c0,18.4-15,33.4-33.4,33.4c-44.3-1.8-44.3-65,0-66.8C1368.3,289.9,1383.3,304.8,1383.3,323.3
		L1383.3,323.3z"/>
</g>
<g>
	<path class="st21" d="M1605.1,323.3c0,18.4-15,33.4-33.4,33.4c-44.3-1.8-44.3-65,0-66.8C1590.1,289.9,1605.1,304.8,1605.1,323.3
		L1605.1,323.3z"/>
</g>
<rect x="1244.7" y="290.5" class="st22" width="65.7" height="65.7"/>
<rect x="1466.3" y="290.5" class="st22" width="65.7" height="65.7"/>
<rect x="1389.8" y="290.5" class="st22" width="65.7" height="65.7"/>
<g>
	<path class="st23" d="M1167.1,417.5c0,18.4-15,33.4-33.4,33.4c-44.3-1.8-44.3-65,0-66.8C1152.2,384.1,1167.1,399.1,1167.1,417.5
		L1167.1,417.5z"/>
</g>
<g>
	<path class="st23" d="M1238.3,417.5c0,18.4-15,33.4-33.4,33.4c-44.3-1.8-44.3-65,0-66.8C1223.3,384.1,1238.3,399.1,1238.3,417.5
		L1238.3,417.5z"/>
</g>
<g>
	<path class="st23" d="M1383.3,417.5c0,18.4-15,33.4-33.4,33.4c-44.3-1.8-44.3-65,0-66.8C1368.3,384.1,1383.3,399.1,1383.3,417.5
		L1383.3,417.5z"/>
</g>
<g>
	<path class="st23" d="M1605.1,417.5c0,18.4-15,33.4-33.4,33.4c-44.3-1.8-44.3-65,0-66.8C1590.1,384.1,1605.1,399.1,1605.1,417.5
		L1605.1,417.5z"/>
</g>
<rect x="1244.7" y="384.7" class="st24" width="65.7" height="65.7"/>
<rect x="1466.3" y="384.7" class="st24" width="65.7" height="65.7"/>
<rect x="1389.8" y="384.7" class="st24" width="65.7" height="65.7"/>
<text transform="matrix(1 0 0 1 138.4931 349.5234)"><tspan x="0" y="0" class="st25 st26">#FFFFFF</tspan><tspan x="-10.1" y="24.4" class="st27 st26">Pure white</tspan></text>
<text transform="matrix(1 0 0 1 385.269 349.5234)"><tspan x="0" y="0" class="st25 st26">#3C3C3C</tspan><tspan x="-6.1" y="24.4" class="st27 st26">Night black</tspan></text>
<text transform="matrix(1 0 0 1 631.5311 349.5234)"><tspan x="0" y="0" class="st25 st26">#8C52DD</tspan><tspan x="1.8" y="24.4" class="st27 st26">Amethyst</tspan></text>
</svg>
