<?xml version="1.0" encoding="utf-8"?>
<!-- Generator: Adobe Illustrator 26.0.1, SVG Export Plug-In . SVG Version: 6.00 Build 0)  -->
<svg version="1.1" id="Layer_1" xmlns="http://www.w3.org/2000/svg" xmlns:xlink="http://www.w3.org/1999/xlink" x="0px" y="0px"
	 viewBox="0 0 194 56" style="enable-background:new 0 0 194 56;" xml:space="preserve">
<style type="text/css">
	.st0{fill:#F7F7F7;}
	.st1{fill:#8C52DD;}
	.st2{font-family:'SVN-HelveticaNeueHeavy';}
	.st3{font-size:12px;}
	.st4{fill:#FFFFFF;}
</style>
<rect class="st0" width="194" height="26.3"/>
<g>
	<g>
		<path class="st1" d="M26.4,11.2c0.6,0.3,1.1,0.7,1.4,1.2c0.4,0.5,0.6,1.1,0.7,1.8h-2.8c-0.1-0.3-0.3-0.5-0.5-0.7s-0.5-0.2-0.8-0.2
			c-0.4,0-0.8,0.2-1.1,0.5c-0.3,0.3-0.4,0.8-0.4,1.4c0,0.6,0.1,1,0.4,1.4c0.3,0.3,0.6,0.5,1.1,0.5c0.3,0,0.6-0.1,0.8-0.2
			c0.2-0.2,0.4-0.4,0.5-0.7h2.8c-0.1,0.7-0.4,1.3-0.7,1.8c-0.4,0.5-0.8,0.9-1.4,1.2c-0.6,0.3-1.2,0.4-2,0.4c-0.9,0-1.6-0.2-2.2-0.5
			c-0.6-0.4-1.1-0.9-1.5-1.5c-0.3-0.7-0.5-1.4-0.5-2.2s0.2-1.6,0.5-2.2c0.3-0.7,0.8-1.2,1.5-1.5c0.6-0.4,1.4-0.5,2.2-0.5
			C25.2,10.8,25.9,11,26.4,11.2z"/>
		<path class="st1" d="M36.1,11.3c0.7,0.4,1.2,0.9,1.6,1.6c0.4,0.7,0.6,1.4,0.6,2.2s-0.2,1.6-0.6,2.2c-0.4,0.7-0.9,1.2-1.6,1.6
			c-0.7,0.4-1.4,0.6-2.2,0.6s-1.5-0.2-2.2-0.6s-1.2-0.9-1.6-1.6s-0.6-1.4-0.6-2.2s0.2-1.6,0.6-2.2c0.4-0.7,0.9-1.2,1.6-1.6
			c0.7-0.4,1.4-0.6,2.2-0.6C34.7,10.8,35.4,10.9,36.1,11.3z M32.7,13.7c-0.3,0.3-0.4,0.8-0.4,1.4c0,0.6,0.1,1,0.4,1.4
			c0.3,0.3,0.7,0.5,1.2,0.5s0.9-0.2,1.2-0.5s0.4-0.8,0.4-1.4c0-0.6-0.1-1-0.4-1.4s-0.7-0.5-1.2-0.5C33.4,13.2,33,13.4,32.7,13.7z"/>
		<path class="st1" d="M47.6,19.4H45l-2.8-4.3v4.3h-2.7v-8.5h2.7l2.8,4.3v-4.3h2.7v8.5H47.6z"/>
		<g>
			<g>
				<path class="st1" d="M55,11.2c0.6,0.3,1.1,0.7,1.4,1.2c0.4,0.5,0.6,1.1,0.7,1.8h-2.8c-0.1-0.3-0.3-0.5-0.5-0.7s-0.5-0.2-0.8-0.2
					c-0.4,0-0.8,0.2-1.1,0.5s-0.4,0.8-0.4,1.4c0,0.6,0.1,1,0.4,1.4c0.3,0.3,0.6,0.5,1.1,0.5c0.3,0,0.6-0.1,0.8-0.2
					c0.2-0.2,0.4-0.4,0.5-0.7h2.8c-0.1,0.7-0.4,1.3-0.7,1.8c-0.4,0.4-0.8,0.8-1.4,1c-0.6,0.3-1.2,0.4-2,0.4c-0.9,0-1.6-0.2-2.2-0.5
					c-0.6-0.4-1.1-0.9-1.5-1.5c-0.3-0.7-0.5-1.4-0.5-2.2s0.2-1.6,0.5-2.2c0.3-0.7,0.8-1.2,1.5-1.5c0.6-0.4,1.4-0.5,2.2-0.5
					C53.8,10.8,54.4,11,55,11.2z"/>
			</g>
		</g>
		<path class="st1" d="M60.9,10.9v4.8c0,0.4,0.1,0.7,0.3,0.9S61.6,17,62,17s0.7-0.1,0.9-0.3s0.3-0.5,0.3-0.9V11h2.7v4.8
			c0,0.8-0.2,1.5-0.5,2.1s-0.8,1-1.4,1.3s-1.2,0.4-2,0.4c-0.7,0-1.4-0.1-1.9-0.4c-0.6-0.3-1-0.7-1.3-1.3s-0.5-1.3-0.5-2.1V11h2.6
			V10.9z"/>
		<path class="st1" d="M75.3,19.4h-2.7l-2.8-4.3v4.3h-2.7v-8.5h2.7l2.8,4.3v-4.3h2.7V19.4z"/>
		<path class="st1" d="M83.6,11.6c0.7,0.5,1.1,1.3,1.2,2.2H82c-0.1-0.2-0.3-0.3-0.4-0.4c-0.2-0.1-0.4-0.1-0.7-0.1
			c-0.5,0-0.9,0.2-1.2,0.5c-0.3,0.3-0.4,0.8-0.4,1.4c0,0.7,0.2,1.2,0.5,1.5s0.8,0.5,1.4,0.5s1.1-0.2,1.5-0.7h-2.1v-1.9h4.3v2.7
			c-0.4,0.6-0.9,1.2-1.5,1.6c-0.6,0.5-1.5,0.7-2.5,0.7c-0.9,0-1.6-0.2-2.3-0.5c-0.7-0.4-1.2-0.9-1.5-1.5c-0.3-0.7-0.5-1.4-0.5-2.2
			s0.2-1.6,0.5-2.2c0.3-0.7,0.8-1.2,1.5-1.5c0.6-0.4,1.4-0.5,2.3-0.5C82,10.8,82.9,11.1,83.6,11.6z"/>
	</g>
</g>
<text transform="matrix(1 0 0 1 102.136 43.0847)" class="st2 st3">CONCUNG</text>
<g>
	<path class="st4" d="M109.3,14.5c0-0.5-0.2-0.8-0.5-1s-0.6-0.4-1.1-0.4c-0.5,0-0.9,0.2-1.2,0.6c-0.3,0.4-0.4,1.1-0.4,1.9
		c0,0.3,0,0.6,0.1,0.9s0.1,0.5,0.2,0.8s0.3,0.4,0.5,0.5s0.5,0.2,0.9,0.2c0.2,0,0.4,0,0.6-0.1s0.3-0.2,0.4-0.3s0.2-0.3,0.3-0.5
		s0.1-0.4,0.1-0.6h2.7c-0.1,0.6-0.2,1.1-0.4,1.5s-0.5,0.8-0.9,1.1s-0.8,0.5-1.3,0.7s-1,0.2-1.6,0.2c-0.7,0-1.4-0.1-1.9-0.3
		c-0.6-0.2-1-0.5-1.4-0.9s-0.7-0.9-0.9-1.4s-0.3-1.2-0.3-1.9c0-0.7,0.1-1.3,0.3-1.9s0.5-1,0.9-1.4s0.8-0.7,1.4-0.9
		c0.5-0.2,1.1-0.3,1.7-0.3c0.7,0,1.2,0.1,1.8,0.2s1,0.4,1.3,0.7s0.7,0.7,0.9,1.1s0.3,0.9,0.4,1.5H109.3z"/>
	<path class="st4" d="M117.4,11c0.5,0,1,0.1,1.4,0.2s0.8,0.3,1.1,0.5s0.6,0.4,0.9,0.7s0.5,0.6,0.6,0.9s0.3,0.7,0.4,1.1
		s0.1,0.7,0.1,1.1c0,0.7-0.1,1.4-0.3,2s-0.6,1.1-1,1.4s-0.9,0.7-1.4,0.9s-1.1,0.3-1.8,0.3c-0.7,0-1.3-0.1-1.9-0.3s-1-0.5-1.4-0.9
		s-0.7-0.9-0.9-1.5s-0.3-1.2-0.3-2c0-0.7,0.1-1.3,0.3-1.8s0.5-1,0.9-1.4s0.9-0.7,1.4-0.9S116.7,11,117.4,11z M117.4,13.1
		c-0.3,0-0.6,0.1-0.8,0.2s-0.4,0.3-0.5,0.6s-0.2,0.5-0.3,0.8s-0.1,0.6-0.1,0.8c0,0.2,0,0.4,0,0.6s0.1,0.4,0.1,0.6s0.1,0.4,0.2,0.5
		s0.2,0.3,0.3,0.4s0.3,0.2,0.4,0.3s0.4,0.1,0.6,0.1c0.3,0,0.6-0.1,0.8-0.2s0.4-0.3,0.5-0.5s0.2-0.5,0.3-0.8s0.1-0.6,0.1-1
		c0-0.3,0-0.6-0.1-0.9s-0.2-0.5-0.3-0.8s-0.3-0.4-0.5-0.5S117.7,13.1,117.4,13.1z"/>
	<path class="st4" d="M129,16l-0.1-2v-2.7h2.7v8.6h-2.7l-3.1-4.7l0.1,2v2.7h-2.7v-8.6h2.7L129,16z"/>
	<path class="st4" d="M138.6,14.5c0-0.5-0.2-0.8-0.5-1s-0.6-0.4-1.1-0.4c-0.5,0-0.9,0.2-1.2,0.6s-0.4,1.1-0.4,1.9
		c0,0.3,0,0.6,0.1,0.9s0.1,0.5,0.2,0.8s0.3,0.4,0.5,0.5s0.5,0.2,0.9,0.2c0.2,0,0.4,0,0.6-0.1s0.3-0.2,0.4-0.3s0.2-0.3,0.3-0.5
		s0.1-0.4,0.1-0.6h2.7c-0.1,0.6-0.2,1.1-0.4,1.5s-0.5,0.8-0.9,1.1s-0.8,0.5-1.3,0.7s-1,0.2-1.6,0.2c-0.7,0-1.4-0.1-1.9-0.3
		s-1-0.5-1.4-0.9s-0.7-0.9-0.9-1.4s-0.3-1.2-0.3-1.9c0-0.7,0.1-1.3,0.3-1.9s0.5-1,0.9-1.4s0.8-0.7,1.4-0.9s1.1-0.3,1.7-0.3
		c0.7,0,1.2,0.1,1.8,0.2s1,0.4,1.3,0.7s0.7,0.7,0.9,1.1s0.3,0.9,0.4,1.5H138.6z"/>
	<path class="st4" d="M142.6,11.2h2.8v5.2c0,0.2,0,0.4,0,0.6s0.1,0.4,0.2,0.5s0.2,0.3,0.4,0.3s0.4,0.1,0.7,0.1c0.3,0,0.5,0,0.6-0.1
		s0.3-0.2,0.4-0.3s0.2-0.3,0.2-0.5s0.1-0.4,0.1-0.6v-5.2h2.8v4.9c0,0.7-0.1,1.3-0.2,1.8s-0.4,0.9-0.8,1.2s-0.8,0.6-1.3,0.7
		s-1.1,0.2-1.9,0.2c-0.7,0-1.3-0.1-1.8-0.2s-1-0.4-1.3-0.7s-0.6-0.7-0.8-1.2s-0.3-1.1-0.3-1.9V11.2z"/>
	<path class="st4" d="M158.3,16l-0.1-2v-2.7h2.7v8.6h-2.7l-3.1-4.7l0.1,2v2.7h-2.7v-8.6h2.7L158.3,16z"/>
	<path class="st4" d="M170.9,19.9h-1.8l-0.1-0.8c-0.1,0.1-0.3,0.3-0.4,0.4s-0.3,0.2-0.6,0.3s-0.5,0.2-0.7,0.2s-0.6,0.1-0.9,0.1
		c-0.4,0-0.7,0-1.1-0.1s-0.7-0.2-1-0.4s-0.6-0.4-0.9-0.6s-0.5-0.5-0.7-0.9s-0.3-0.7-0.4-1.1s-0.2-0.9-0.2-1.4c0-0.7,0.1-1.3,0.3-1.9
		s0.5-1.1,0.9-1.5s0.9-0.7,1.4-1s1.2-0.3,1.9-0.3c0.5,0,1,0.1,1.5,0.2s0.9,0.3,1.2,0.6s0.7,0.6,0.9,1s0.4,0.9,0.5,1.4h-2.7
		c-0.1-0.4-0.3-0.6-0.5-0.8s-0.6-0.3-0.9-0.3c-0.3,0-0.5,0.1-0.7,0.2s-0.4,0.3-0.5,0.5s-0.2,0.5-0.3,0.8s-0.1,0.7-0.1,1
		c0,0.3,0,0.6,0.1,0.9s0.2,0.5,0.3,0.7s0.3,0.4,0.6,0.5s0.5,0.2,0.9,0.2c0.1,0,0.3,0,0.5-0.1s0.3-0.1,0.4-0.2s0.3-0.2,0.4-0.3
		s0.2-0.3,0.2-0.4h-1.2v-1.9h3.9V19.9z"/>
</g>
</svg>
