<?xml version="1.0" encoding="utf-8"?>
<!-- Generator: Adobe Illustrator 26.0.1, SVG Export Plug-In . SVG Version: 6.00 Build 0)  -->
<svg version="1.1" id="Layer_1" xmlns="http://www.w3.org/2000/svg" xmlns:xlink="http://www.w3.org/1999/xlink" x="0px" y="0px"
	 viewBox="0 0 194 56" style="enable-background:new 0 0 194 56;" xml:space="preserve">
<style type="text/css">
	.st0{fill:#F7F7F7;}
	.st1{fill:#8C52DD;}
	.st2{fill:#FFFFFF;}
</style>
<rect class="st0" width="194" height="26.3"/>
<g>
	<g>
		<path class="st1" d="M26.4,11.2c0.6,0.3,1.1,0.7,1.4,1.2c0.4,0.5,0.6,1.1,0.7,1.8h-2.8c-0.1-0.3-0.3-0.5-0.5-0.7
			c-0.2-0.2-0.5-0.2-0.8-0.2c-0.4,0-0.8,0.2-1.1,0.5c-0.3,0.3-0.4,0.8-0.4,1.4c0,0.6,0.1,1,0.4,1.4c0.3,0.3,0.6,0.5,1.1,0.5
			c0.3,0,0.6-0.1,0.8-0.2c0.2-0.2,0.4-0.4,0.5-0.7h2.8c-0.1,0.7-0.4,1.3-0.7,1.8c-0.4,0.5-0.8,0.9-1.4,1.2c-0.6,0.3-1.2,0.4-2,0.4
			c-0.9,0-1.6-0.2-2.2-0.5c-0.6-0.4-1.1-0.9-1.5-1.5c-0.3-0.7-0.5-1.4-0.5-2.2c0-0.8,0.2-1.6,0.5-2.2c0.3-0.7,0.8-1.2,1.5-1.5
			c0.6-0.4,1.4-0.5,2.2-0.5C25.2,10.8,25.9,11,26.4,11.2z"/>
		<path class="st1" d="M36.1,11.3c0.7,0.4,1.2,0.9,1.6,1.6c0.4,0.7,0.6,1.4,0.6,2.2c0,0.8-0.2,1.6-0.6,2.2c-0.4,0.7-0.9,1.2-1.6,1.6
			c-0.7,0.4-1.4,0.6-2.2,0.6c-0.8,0-1.5-0.2-2.2-0.6c-0.7-0.4-1.2-0.9-1.6-1.6c-0.4-0.7-0.6-1.4-0.6-2.2c0-0.8,0.2-1.6,0.6-2.2
			c0.4-0.7,0.9-1.2,1.6-1.6c0.7-0.4,1.4-0.6,2.2-0.6C34.7,10.8,35.4,10.9,36.1,11.3z M32.7,13.7c-0.3,0.3-0.4,0.8-0.4,1.4
			c0,0.6,0.1,1,0.4,1.4c0.3,0.3,0.7,0.5,1.2,0.5c0.5,0,0.9-0.2,1.2-0.5c0.3-0.3,0.4-0.8,0.4-1.4c0-0.6-0.1-1-0.4-1.4
			s-0.7-0.5-1.2-0.5C33.4,13.2,33,13.4,32.7,13.7z"/>
		<path class="st1" d="M47.6,19.4H45l-2.8-4.3v4.3h-2.7v-8.5h2.7l2.8,4.3v-4.3h2.7V19.4z"/>
		<g>
			<g>
				<path class="st1" d="M55,11.2c0.6,0.3,1.1,0.7,1.4,1.2c0.4,0.5,0.6,1.1,0.7,1.8h-2.8c-0.1-0.3-0.3-0.5-0.5-0.7
					c-0.2-0.2-0.5-0.2-0.8-0.2c-0.4,0-0.8,0.2-1.1,0.5c-0.3,0.3-0.4,0.8-0.4,1.4c0,0.6,0.1,1,0.4,1.4c0.3,0.3,0.6,0.5,1.1,0.5
					c0.3,0,0.6-0.1,0.8-0.2c0.2-0.2,0.4-0.4,0.5-0.7h2.8c-0.1,0.7-0.4,1.3-0.7,1.8C56,18.4,55.6,18.8,55,19c-0.6,0.3-1.2,0.4-2,0.4
					c-0.9,0-1.6-0.2-2.2-0.5c-0.6-0.4-1.1-0.9-1.5-1.5c-0.3-0.7-0.5-1.4-0.5-2.2c0-0.8,0.2-1.6,0.5-2.2c0.3-0.7,0.8-1.2,1.5-1.5
					c0.6-0.4,1.4-0.5,2.2-0.5C53.8,10.8,54.4,11,55,11.2z"/>
			</g>
		</g>
		<path class="st1" d="M60.9,10.9v4.8c0,0.4,0.1,0.7,0.3,0.9S61.6,17,62,17c0.4,0,0.7-0.1,0.9-0.3s0.3-0.5,0.3-0.9v-4.8h2.7v4.8
			c0,0.8-0.2,1.5-0.5,2.1c-0.3,0.6-0.8,1-1.4,1.3s-1.2,0.4-2,0.4c-0.7,0-1.4-0.1-1.9-0.4c-0.6-0.3-1-0.7-1.3-1.3s-0.5-1.3-0.5-2.1
			v-4.8H60.9z"/>
		<path class="st1" d="M75.3,19.4h-2.7l-2.8-4.3v4.3h-2.7v-8.5h2.7l2.8,4.3v-4.3h2.7V19.4z"/>
		<path class="st1" d="M83.6,11.6c0.7,0.5,1.1,1.3,1.2,2.2H82c-0.1-0.2-0.3-0.3-0.4-0.4c-0.2-0.1-0.4-0.1-0.7-0.1
			c-0.5,0-0.9,0.2-1.2,0.5c-0.3,0.3-0.4,0.8-0.4,1.4c0,0.7,0.2,1.2,0.5,1.5s0.8,0.5,1.4,0.5c0.6,0,1.1-0.2,1.5-0.7h-2.1v-1.9h4.3
			v2.7c-0.4,0.6-0.9,1.2-1.5,1.6c-0.6,0.5-1.5,0.7-2.5,0.7c-0.9,0-1.6-0.2-2.3-0.5c-0.7-0.4-1.2-0.9-1.5-1.5
			c-0.3-0.7-0.5-1.4-0.5-2.2c0-0.8,0.2-1.6,0.5-2.2c0.3-0.7,0.8-1.2,1.5-1.5c0.6-0.4,1.4-0.5,2.3-0.5C82,10.8,82.9,11.1,83.6,11.6z"
			/>
	</g>
</g>
<g>
	<path class="st2" d="M110.5,11.2c0.6,0.3,1.1,0.7,1.4,1.2c0.4,0.5,0.6,1.1,0.7,1.8h-2.8c-0.1-0.3-0.3-0.5-0.5-0.7
		c-0.2-0.2-0.5-0.2-0.8-0.2c-0.4,0-0.8,0.2-1.1,0.5c-0.3,0.3-0.4,0.8-0.4,1.4c0,0.6,0.1,1,0.4,1.4c0.3,0.3,0.6,0.5,1.1,0.5
		c0.3,0,0.6-0.1,0.8-0.2c0.2-0.2,0.4-0.4,0.5-0.7h2.8c-0.1,0.7-0.4,1.3-0.7,1.8c-0.4,0.5-0.8,0.9-1.4,1.2c-0.6,0.3-1.2,0.4-2,0.4
		c-0.9,0-1.6-0.2-2.2-0.5c-0.6-0.4-1.1-0.9-1.5-1.5c-0.3-0.7-0.5-1.4-0.5-2.2c0-0.8,0.2-1.6,0.5-2.2c0.3-0.7,0.8-1.2,1.5-1.5
		c0.6-0.4,1.4-0.5,2.2-0.5C109.3,10.8,109.9,11,110.5,11.2z"/>
	<path class="st2" d="M120.2,11.3c0.7,0.4,1.2,0.9,1.6,1.6c0.4,0.7,0.6,1.4,0.6,2.2c0,0.8-0.2,1.6-0.6,2.2c-0.4,0.7-0.9,1.2-1.6,1.6
		c-0.7,0.4-1.4,0.6-2.2,0.6c-0.8,0-1.5-0.2-2.2-0.6s-1.2-0.9-1.6-1.6c-0.4-0.7-0.6-1.4-0.6-2.2c0-0.8,0.2-1.6,0.6-2.2
		c0.4-0.7,0.9-1.2,1.6-1.6s1.4-0.6,2.2-0.6C118.8,10.8,119.5,10.9,120.2,11.3z M116.8,13.7c-0.3,0.3-0.4,0.8-0.4,1.4
		c0,0.6,0.1,1,0.4,1.4c0.3,0.3,0.7,0.5,1.2,0.5c0.5,0,0.9-0.2,1.2-0.5c0.3-0.3,0.4-0.8,0.4-1.4c0-0.6-0.1-1-0.4-1.4
		s-0.7-0.5-1.2-0.5C117.5,13.2,117.1,13.4,116.8,13.7z"/>
	<path class="st2" d="M131.7,19.4H129l-2.8-4.3v4.3h-2.7v-8.5h2.7l2.8,4.3v-4.3h2.7V19.4z"/>
	<path class="st2" d="M139.1,11.2c0.6,0.3,1.1,0.7,1.4,1.2c0.4,0.5,0.6,1.1,0.7,1.8h-2.8c-0.1-0.3-0.3-0.5-0.5-0.7
		c-0.2-0.2-0.5-0.2-0.8-0.2c-0.4,0-0.8,0.2-1.1,0.5c-0.3,0.3-0.4,0.8-0.4,1.4c0,0.6,0.1,1,0.4,1.4c0.3,0.3,0.6,0.5,1.1,0.5
		c0.3,0,0.6-0.1,0.8-0.2c0.2-0.2,0.4-0.4,0.5-0.7h2.8c-0.1,0.7-0.4,1.3-0.7,1.8c-0.4,0.5-0.8,0.9-1.4,1.2c-0.6,0.3-1.2,0.4-2,0.4
		c-0.9,0-1.6-0.2-2.2-0.5c-0.6-0.4-1.1-0.9-1.5-1.5c-0.3-0.7-0.5-1.4-0.5-2.2c0-0.8,0.2-1.6,0.5-2.2c0.3-0.7,0.8-1.2,1.5-1.5
		c0.6-0.4,1.4-0.5,2.2-0.5C137.8,10.8,138.5,11,139.1,11.2z"/>
	<path class="st2" d="M145,10.9v4.8c0,0.4,0.1,0.7,0.3,0.9s0.5,0.3,0.8,0.3c0.4,0,0.7-0.1,0.9-0.3s0.3-0.5,0.3-0.9v-4.8h2.7v4.8
		c0,0.8-0.2,1.5-0.5,2.1c-0.3,0.6-0.8,1-1.4,1.3s-1.2,0.4-2,0.4c-0.7,0-1.4-0.1-1.9-0.4c-0.6-0.3-1-0.7-1.3-1.3s-0.5-1.3-0.5-2.1
		v-4.8H145z"/>
	<path class="st2" d="M159.4,19.4h-2.7l-2.8-4.3v4.3h-2.7v-8.5h2.7l2.8,4.3v-4.3h2.7V19.4z"/>
	<path class="st2" d="M167.6,11.6c0.7,0.5,1.1,1.3,1.2,2.2h-2.8c-0.1-0.2-0.3-0.3-0.4-0.4c-0.2-0.1-0.4-0.1-0.7-0.1
		c-0.5,0-0.9,0.2-1.2,0.5c-0.3,0.3-0.4,0.8-0.4,1.4c0,0.7,0.2,1.2,0.5,1.5s0.8,0.5,1.4,0.5c0.6,0,1.1-0.2,1.5-0.7h-2.1v-1.9h4.3v2.7
		c-0.4,0.6-0.9,1.2-1.5,1.6c-0.6,0.5-1.5,0.7-2.5,0.7c-0.9,0-1.6-0.2-2.3-0.5c-0.7-0.4-1.2-0.9-1.5-1.5c-0.3-0.7-0.5-1.4-0.5-2.2
		c0-0.8,0.2-1.6,0.5-2.2c0.3-0.7,0.8-1.2,1.5-1.5c0.6-0.4,1.4-0.5,2.3-0.5C166,10.8,166.9,11.1,167.6,11.6z"/>
</g>
</svg>
